<svg width="310" height="20" viewBox="0 0 310 20" fill="none" xmlns="http://www.w3.org/2000/svg">
<path d="M34.3459 5.172V7.09H31.7419V15H29.3479V7.09H26.7439V5.172H34.3459ZM46.7614 7.188L44.6474 15H42.0014L40.7694 9.932L39.4954 15H36.8634L34.7354 7.188H37.1294L38.2354 12.774L39.5514 7.188H42.0854L43.4154 12.746L44.5074 7.188H46.7614ZM48.8783 6.376C48.4583 6.376 48.113 6.25467 47.8423 6.012C47.581 5.76 47.4503 5.452 47.4503 5.088C47.4503 4.71467 47.581 4.40667 47.8423 4.164C48.113 3.912 48.4583 3.786 48.8783 3.786C49.289 3.786 49.625 3.912 49.8863 4.164C50.157 4.40667 50.2923 4.71467 50.2923 5.088C50.2923 5.452 50.157 5.76 49.8863 6.012C49.625 6.25467 49.289 6.376 48.8783 6.376ZM50.0683 7.188V15H47.6743V7.188H50.0683ZM56.1572 12.97V15H54.9392C54.0712 15 53.3946 14.79 52.9092 14.37C52.4239 13.9407 52.1812 13.2453 52.1812 12.284V9.176H51.2292V7.188H52.1812V5.284H54.5752V7.188H56.1432V9.176H54.5752V12.312C54.5752 12.5453 54.6312 12.7133 54.7432 12.816C54.8552 12.9187 55.0419 12.97 55.3032 12.97H56.1572ZM61.8447 12.97V15H60.6267C59.7587 15 59.0821 14.79 58.5967 14.37C58.1114 13.9407 57.8687 13.2453 57.8687 12.284V9.176H56.9167V7.188H57.8687V5.284H60.2627V7.188H61.8307V9.176H60.2627V12.312C60.2627 12.5453 60.3187 12.7133 60.4307 12.816C60.5427 12.9187 60.7294 12.97 60.9907 12.97H61.8447ZM70.5422 10.968C70.5422 11.192 70.5282 11.4253 70.5002 11.668H65.0822C65.1196 12.1533 65.2736 12.5267 65.5442 12.788C65.8242 13.04 66.1649 13.166 66.5662 13.166C67.1636 13.166 67.5789 12.914 67.8122 12.41H70.3602C70.2296 12.9233 69.9916 13.3853 69.6462 13.796C69.3102 14.2067 68.8856 14.5287 68.3722 14.762C67.8589 14.9953 67.2849 15.112 66.6502 15.112C65.8849 15.112 65.2036 14.9487 64.6062 14.622C64.0089 14.2953 63.5422 13.8287 63.2062 13.222C62.8702 12.6153 62.7022 11.906 62.7022 11.094C62.7022 10.282 62.8656 9.57267 63.1922 8.966C63.5282 8.35933 63.9949 7.89267 64.5922 7.566C65.1896 7.23933 65.8756 7.076 66.6502 7.076C67.4062 7.076 68.0782 7.23467 68.6662 7.552C69.2542 7.86933 69.7116 8.322 70.0382 8.91C70.3742 9.498 70.5422 10.184 70.5422 10.968ZM68.0922 10.338C68.0922 9.92733 67.9522 9.60067 67.6722 9.358C67.3922 9.11533 67.0422 8.994 66.6222 8.994C66.2209 8.994 65.8802 9.11067 65.6002 9.344C65.3296 9.57733 65.1616 9.90867 65.0962 10.338H68.0922ZM74.1992 8.49C74.4792 8.06067 74.8292 7.72467 75.2492 7.482C75.6692 7.23 76.1358 7.104 76.6492 7.104V9.638H75.9912C75.3938 9.638 74.9458 9.76867 74.6472 10.03C74.3485 10.282 74.1992 10.73 74.1992 11.374V15H71.8052V7.188H74.1992V8.49Z" fill="#009379"/>
<path d="M128.774 5.172C129.81 5.172 130.716 5.37733 131.49 5.788C132.265 6.19867 132.862 6.77733 133.282 7.524C133.712 8.26133 133.926 9.11533 133.926 10.086C133.926 11.0473 133.712 11.9013 133.282 12.648C132.862 13.3947 132.26 13.9733 131.476 14.384C130.702 14.7947 129.801 15 128.774 15H125.092V5.172H128.774ZM128.62 12.928C129.526 12.928 130.23 12.6807 130.734 12.186C131.238 11.6913 131.49 10.9913 131.49 10.086C131.49 9.18067 131.238 8.476 130.734 7.972C130.23 7.468 129.526 7.216 128.62 7.216H127.486V12.928H128.62ZM137.658 8.49C137.938 8.06067 138.288 7.72467 138.708 7.482C139.128 7.23 139.595 7.104 140.108 7.104V9.638H139.45C138.853 9.638 138.405 9.76867 138.106 10.03C137.807 10.282 137.658 10.73 137.658 11.374V15H135.264V7.188H137.658V8.49ZM142.456 6.376C142.036 6.376 141.691 6.25467 141.42 6.012C141.159 5.76 141.028 5.452 141.028 5.088C141.028 4.71467 141.159 4.40667 141.42 4.164C141.691 3.912 142.036 3.786 142.456 3.786C142.867 3.786 143.203 3.912 143.464 4.164C143.735 4.40667 143.87 4.71467 143.87 5.088C143.87 5.452 143.735 5.76 143.464 6.012C143.203 6.25467 142.867 6.376 142.456 6.376ZM143.646 7.188V15H141.252V7.188H143.646ZM147.775 8.294C147.999 7.93 148.321 7.636 148.741 7.412C149.161 7.188 149.642 7.076 150.183 7.076C150.827 7.076 151.411 7.23933 151.933 7.566C152.456 7.89267 152.867 8.35933 153.165 8.966C153.473 9.57267 153.627 10.2773 153.627 11.08C153.627 11.8827 153.473 12.592 153.165 13.208C152.867 13.8147 152.456 14.286 151.933 14.622C151.411 14.9487 150.827 15.112 150.183 15.112C149.633 15.112 149.152 15.0047 148.741 14.79C148.331 14.566 148.009 14.272 147.775 13.908V15H145.381V4.64H147.775V8.294ZM151.191 11.08C151.191 10.4827 151.023 10.016 150.687 9.68C150.361 9.33467 149.955 9.162 149.469 9.162C148.993 9.162 148.587 9.33467 148.251 9.68C147.925 10.0253 147.761 10.4967 147.761 11.094C147.761 11.6913 147.925 12.1627 148.251 12.508C148.587 12.8533 148.993 13.026 149.469 13.026C149.945 13.026 150.351 12.8533 150.687 12.508C151.023 12.1533 151.191 11.6773 151.191 11.08ZM157.277 8.294C157.501 7.93 157.823 7.636 158.243 7.412C158.663 7.188 159.144 7.076 159.685 7.076C160.329 7.076 160.913 7.23933 161.435 7.566C161.958 7.89267 162.369 8.35933 162.667 8.966C162.975 9.57267 163.129 10.2773 163.129 11.08C163.129 11.8827 162.975 12.592 162.667 13.208C162.369 13.8147 161.958 14.286 161.435 14.622C160.913 14.9487 160.329 15.112 159.685 15.112C159.135 15.112 158.654 15.0047 158.243 14.79C157.833 14.566 157.511 14.272 157.277 13.908V15H154.883V4.64H157.277V8.294ZM160.693 11.08C160.693 10.4827 160.525 10.016 160.189 9.68C159.863 9.33467 159.457 9.162 158.971 9.162C158.495 9.162 158.089 9.33467 157.753 9.68C157.427 10.0253 157.263 10.4967 157.263 11.094C157.263 11.6913 157.427 12.1627 157.753 12.508C158.089 12.8533 158.495 13.026 158.971 13.026C159.447 13.026 159.853 12.8533 160.189 12.508C160.525 12.1533 160.693 11.6773 160.693 11.08ZM166.779 8.294C167.003 7.93 167.325 7.636 167.745 7.412C168.165 7.188 168.646 7.076 169.187 7.076C169.831 7.076 170.415 7.23933 170.937 7.566C171.46 7.89267 171.871 8.35933 172.169 8.966C172.477 9.57267 172.631 10.2773 172.631 11.08C172.631 11.8827 172.477 12.592 172.169 13.208C171.871 13.8147 171.46 14.286 170.937 14.622C170.415 14.9487 169.831 15.112 169.187 15.112C168.637 15.112 168.156 15.0047 167.745 14.79C167.335 14.566 167.013 14.272 166.779 13.908V15H164.385V4.64H166.779V8.294ZM170.195 11.08C170.195 10.4827 170.027 10.016 169.691 9.68C169.365 9.33467 168.959 9.162 168.473 9.162C167.997 9.162 167.591 9.33467 167.255 9.68C166.929 10.0253 166.765 10.4967 166.765 11.094C166.765 11.6913 166.929 12.1627 167.255 12.508C167.591 12.8533 167.997 13.026 168.473 13.026C168.949 13.026 169.355 12.8533 169.691 12.508C170.027 12.1533 170.195 11.6773 170.195 11.08ZM176.281 4.64V15H173.887V4.64H176.281ZM185.38 10.968C185.38 11.192 185.366 11.4253 185.338 11.668H179.92C179.957 12.1533 180.111 12.5267 180.382 12.788C180.662 13.04 181.003 13.166 181.404 13.166C182.001 13.166 182.417 12.914 182.65 12.41H185.198C185.067 12.9233 184.829 13.3853 184.484 13.796C184.148 14.2067 183.723 14.5287 183.21 14.762C182.697 14.9953 182.123 15.112 181.488 15.112C180.723 15.112 180.041 14.9487 179.444 14.622C178.847 14.2953 178.38 13.8287 178.044 13.222C177.708 12.6153 177.54 11.906 177.54 11.094C177.54 10.282 177.703 9.57267 178.03 8.966C178.366 8.35933 178.833 7.89267 179.43 7.566C180.027 7.23933 180.713 7.076 181.488 7.076C182.244 7.076 182.916 7.23467 183.504 7.552C184.092 7.86933 184.549 8.322 184.876 8.91C185.212 9.498 185.38 10.184 185.38 10.968ZM182.93 10.338C182.93 9.92733 182.79 9.60067 182.51 9.358C182.23 9.11533 181.88 8.994 181.46 8.994C181.059 8.994 180.718 9.11067 180.438 9.344C180.167 9.57733 179.999 9.90867 179.934 10.338H182.93Z" fill="#009379"/>
<path d="M231.306 13.152H234.442V15H228.912V5.172H231.306V13.152ZM236.787 6.376C236.367 6.376 236.022 6.25467 235.751 6.012C235.49 5.76 235.359 5.452 235.359 5.088C235.359 4.71467 235.49 4.40667 235.751 4.164C236.022 3.912 236.367 3.786 236.787 3.786C237.198 3.786 237.534 3.912 237.795 4.164C238.066 4.40667 238.201 4.71467 238.201 5.088C238.201 5.452 238.066 5.76 237.795 6.012C237.534 6.25467 237.198 6.376 236.787 6.376ZM237.977 7.188V15H235.583V7.188H237.977ZM244.472 7.104C245.387 7.104 246.115 7.40267 246.656 8C247.207 8.588 247.482 9.4 247.482 10.436V15H245.102V10.758C245.102 10.2353 244.967 9.82933 244.696 9.54C244.426 9.25067 244.062 9.106 243.604 9.106C243.147 9.106 242.783 9.25067 242.512 9.54C242.242 9.82933 242.106 10.2353 242.106 10.758V15H239.712V7.188H242.106V8.224C242.349 7.87867 242.676 7.608 243.086 7.412C243.497 7.20667 243.959 7.104 244.472 7.104ZM253.92 15L251.54 11.724V15H249.146V4.64H251.54V10.366L253.906 7.188H256.86L253.612 11.108L256.888 15H253.92ZM265.164 10.968C265.164 11.192 265.15 11.4253 265.122 11.668H259.704C259.742 12.1533 259.896 12.5267 260.166 12.788C260.446 13.04 260.787 13.166 261.188 13.166C261.786 13.166 262.201 12.914 262.434 12.41H264.982C264.852 12.9233 264.614 13.3853 264.268 13.796C263.932 14.2067 263.508 14.5287 262.994 14.762C262.481 14.9953 261.907 15.112 261.272 15.112C260.507 15.112 259.826 14.9487 259.228 14.622C258.631 14.2953 258.164 13.8287 257.828 13.222C257.492 12.6153 257.324 11.906 257.324 11.094C257.324 10.282 257.488 9.57267 257.814 8.966C258.15 8.35933 258.617 7.89267 259.214 7.566C259.812 7.23933 260.498 7.076 261.272 7.076C262.028 7.076 262.7 7.23467 263.288 7.552C263.876 7.86933 264.334 8.322 264.66 8.91C264.996 9.498 265.164 10.184 265.164 10.968ZM262.714 10.338C262.714 9.92733 262.574 9.60067 262.294 9.358C262.014 9.11533 261.664 8.994 261.244 8.994C260.843 8.994 260.502 9.11067 260.222 9.344C259.952 9.57733 259.784 9.90867 259.718 10.338H262.714ZM265.951 11.08C265.951 10.2773 266.101 9.57267 266.399 8.966C266.707 8.35933 267.123 7.89267 267.645 7.566C268.168 7.23933 268.751 7.076 269.395 7.076C269.909 7.076 270.375 7.18333 270.795 7.398C271.225 7.61267 271.561 7.902 271.803 8.266V4.64H274.197V15H271.803V13.88C271.579 14.2533 271.257 14.552 270.837 14.776C270.427 15 269.946 15.112 269.395 15.112C268.751 15.112 268.168 14.9487 267.645 14.622C267.123 14.286 266.707 13.8147 266.399 13.208C266.101 12.592 265.951 11.8827 265.951 11.08ZM271.803 11.094C271.803 10.4967 271.635 10.0253 271.299 9.68C270.973 9.33467 270.571 9.162 270.095 9.162C269.619 9.162 269.213 9.33467 268.877 9.68C268.551 10.016 268.387 10.4827 268.387 11.08C268.387 11.6773 268.551 12.1533 268.877 12.508C269.213 12.8533 269.619 13.026 270.095 13.026C270.571 13.026 270.973 12.8533 271.299 12.508C271.635 12.1627 271.803 11.6913 271.803 11.094ZM277.133 6.376C276.713 6.376 276.368 6.25467 276.097 6.012C275.836 5.76 275.705 5.452 275.705 5.088C275.705 4.71467 275.836 4.40667 276.097 4.164C276.368 3.912 276.713 3.786 277.133 3.786C277.544 3.786 277.88 3.912 278.141 4.164C278.412 4.40667 278.547 4.71467 278.547 5.088C278.547 5.452 278.412 5.76 278.141 6.012C277.88 6.25467 277.544 6.376 277.133 6.376ZM278.323 7.188V15H275.929V7.188H278.323ZM284.818 7.104C285.733 7.104 286.461 7.40267 287.002 8C287.553 8.588 287.828 9.4 287.828 10.436V15H285.448V10.758C285.448 10.2353 285.313 9.82933 285.042 9.54C284.771 9.25067 284.407 9.106 283.95 9.106C283.493 9.106 283.129 9.25067 282.858 9.54C282.587 9.82933 282.452 10.2353 282.452 10.758V15H280.058V7.188H282.452V8.224C282.695 7.87867 283.021 7.608 283.432 7.412C283.843 7.20667 284.305 7.104 284.818 7.104Z" fill="#009379"/>
</svg>
