<svg width="39" height="44" viewBox="0 0 61 62" fill="none" xmlns="http://www.w3.org/2000/svg">
<path fill-rule="evenodd" clip-rule="evenodd" d="M0 19.1963C0 16.711 2.01472 14.6963 4.5 14.6963H11.5C13.9853 14.6963 16 16.711 16 19.1963V54.1963C16 58.3384 12.6421 61.6963 8.5 61.6963H7.5C3.35786 61.6963 0 58.3384 0 54.1963V19.1963ZM5 19.6963V54.1963C5 55.577 6.11929 56.6963 7.5 56.6963H8.5C9.88071 56.6963 11 55.577 11 54.1963V19.6963H5Z" fill="white"/>
<path fill-rule="evenodd" clip-rule="evenodd" d="M11 8.19629C11 4.05415 14.3579 0.696289 18.5 0.696289H53.5C57.6421 0.696289 61 4.05415 61 8.19629V47.1963C61 55.2044 54.5081 61.6963 46.5 61.6963H8.5V56.6963H46.5C51.7467 56.6963 56 52.443 56 47.1963V8.19629C56 6.81558 54.8807 5.69629 53.5 5.69629H18.5C17.1193 5.69629 16 6.81558 16 8.19629V40.1963H11V8.19629Z" fill="white"/>
<path fill-rule="evenodd" clip-rule="evenodd" d="M23 34.1963C23 32.8156 24.1193 31.6963 25.5 31.6963H47.5C48.8807 31.6963 50 32.8156 50 34.1963C50 35.577 48.8807 36.6963 47.5 36.6963H25.5C24.1193 36.6963 23 35.577 23 34.1963Z" fill="white"/>
<path fill-rule="evenodd" clip-rule="evenodd" d="M23 45.1963C23 43.8156 24.1193 42.6963 25.5 42.6963H47.5C48.8807 42.6963 50 43.8156 50 45.1963C50 46.577 48.8807 47.6963 47.5 47.6963H25.5C24.1193 47.6963 23 46.577 23 45.1963Z" fill="white"/>
<path d="M32.5 17.6963C32.5 20.1816 30.4853 22.1963 28 22.1963C25.5147 22.1963 23.5 20.1816 23.5 17.6963C23.5 15.211 25.5147 13.1963 28 13.1963C30.4853 13.1963 32.5 15.211 32.5 17.6963Z" fill="white"/>
</svg>
