
<svg width="39" height="44" viewBox="0 0 59 64" fill="none" xmlns="http://www.w3.org/2000/svg">
<path fill-rule="evenodd" clip-rule="evenodd" d="M0 30.1963C0 13.9039 13.2076 0.696289 29.5 0.696289C45.7924 0.696289 59 13.9039 59 30.1963V52.1963H54V30.1963C54 16.6653 43.031 5.69629 29.5 5.69629C15.969 5.69629 5 16.6653 5 30.1963V52.1963H0V30.1963Z" fill="white"/>
<path fill-rule="evenodd" clip-rule="evenodd" d="M0 44.1963C0 38.3973 4.70101 33.6963 10.5 33.6963H12.5C15.5376 33.6963 18 36.1587 18 39.1963V58.1963C18 61.2339 15.5376 63.6963 12.5 63.6963H10.5C4.70101 63.6963 0 58.9953 0 53.1963V44.1963ZM10.5 38.6963C7.46243 38.6963 5 41.1587 5 44.1963V53.1963C5 56.2339 7.46243 58.6963 10.5 58.6963H12.5C12.7761 58.6963 13 58.4724 13 58.1963V39.1963C13 38.9201 12.7761 38.6963 12.5 38.6963H10.5Z" fill="white"/>
<path fill-rule="evenodd" clip-rule="evenodd" d="M59 44.1963C59 38.3973 54.299 33.6963 48.5 33.6963H46.5C43.4624 33.6963 41 36.1587 41 39.1963V58.1963C41 61.2339 43.4624 63.6963 46.5 63.6963H48.5C54.299 63.6963 59 58.9953 59 53.1963V44.1963ZM48.5 38.6963C51.5376 38.6963 54 41.1587 54 44.1963V53.1963C54 56.2339 51.5376 58.6963 48.5 58.6963H46.5C46.2239 58.6963 46 58.4724 46 58.1963V39.1963C46 38.9201 46.2239 38.6963 46.5 38.6963H48.5Z" fill="white"/>
</svg>
