<svg width="39" height="44" viewBox="0 0 60 61" fill="none" xmlns="http://www.w3.org/2000/svg">
<path fill-rule="evenodd" clip-rule="evenodd" d="M6.41846 12.1496C11.9075 5.17926 20.4309 0.696289 30 0.696289C46.5685 0.696289 60 14.1277 60 30.6963C60 47.2648 46.5685 60.6963 30 60.6963C13.4315 60.6963 0 47.2648 0 30.6963C0 29.3156 1.11929 28.1963 2.5 28.1963C3.88071 28.1963 5 29.3156 5 30.6963C5 44.5034 16.1929 55.6963 30 55.6963C43.8071 55.6963 55 44.5034 55 30.6963C55 16.8892 43.8071 5.69629 30 5.69629C22.0281 5.69629 14.9285 9.42476 10.3467 15.243L6.41846 12.1496Z" fill="white"/>
<path fill-rule="evenodd" clip-rule="evenodd" d="M30.5 14.1963C31.8807 14.1963 33 15.3156 33 16.6963V30.0736L41.1609 37.3278C42.1929 38.2451 42.2858 39.8252 41.3685 40.8572C40.4512 41.8892 38.871 41.9821 37.8391 41.0648L28.8391 33.0648C28.3054 32.5904 28 31.9104 28 31.1963V16.6963C28 15.3156 29.1193 14.1963 30.5 14.1963Z" fill="white"/>
<path fill-rule="evenodd" clip-rule="evenodd" d="M6.5 2.69629C7.88071 2.69629 9 3.81558 9 5.19629V12.6963H16.5C17.8807 12.6963 19 13.8156 19 15.1963C19 16.577 17.8807 17.6963 16.5 17.6963H6.5C5.11929 17.6963 4 16.577 4 15.1963V5.19629C4 3.81558 5.11929 2.69629 6.5 2.69629Z" fill="white"/>
</svg>
