<svg width="465" height="210" viewBox="0 0 465 210" fill="none" xmlns="http://www.w3.org/2000/svg">
<rect x="0.5" y="0.5" width="464" height="59" rx="19.5" fill="white"/>
<rect x="0.5" y="0.5" width="464" height="59" rx="19.5" stroke="#D8D8D8"/>
<path opacity="0.2" d="M30 32.5C32.7614 32.5 35 30.2614 35 27.5C35 24.7386 32.7614 22.5 30 22.5C27.2386 22.5 25 24.7386 25 27.5C25 30.2614 27.2386 32.5 30 32.5Z" fill="#009379"/>
<path d="M30 32.5C32.7614 32.5 35 30.2614 35 27.5C35 24.7386 32.7614 22.5 30 22.5C27.2386 22.5 25 24.7386 25 27.5C25 30.2614 27.2386 32.5 30 32.5Z" stroke="#009379" stroke-width="0.740741" stroke-miterlimit="10"/>
<path d="M22.4219 36.8752C23.1898 35.5449 24.2944 34.4401 25.6247 33.672C26.9549 32.9039 28.4639 32.4995 30 32.4995C31.5361 32.4995 33.0451 32.9039 34.3753 33.672C35.7056 34.4401 36.8102 35.5449 37.5781 36.8752" stroke="#009379" stroke-width="0.740741" stroke-linecap="round" stroke-linejoin="round"/>
<rect x="48" y="20" width="1" height="20" fill="#DBE3FF"/>
<path d="M62.408 36V24.72H69.448V25.808H63.736V29.76H69.096V30.848H63.736V36H62.408ZM73.9085 36.144C72.9592 36.144 72.2392 35.8827 71.7485 35.36C71.2685 34.8373 71.0285 34.0373 71.0285 32.96V27.968H72.3245V32.928C72.3245 33.664 72.4738 34.208 72.7725 34.56C73.0712 34.9013 73.5352 35.072 74.1645 35.072C74.8685 35.072 75.4338 34.8427 75.8605 34.384C76.2872 33.9253 76.5005 33.312 76.5005 32.544V27.968H77.7965V36H76.5325V34.192H76.7405C76.5165 34.8107 76.1538 35.2907 75.6525 35.632C75.1618 35.9733 74.5805 36.144 73.9085 36.144ZM80.3109 36V24.224H81.6069V36H80.3109ZM84.1234 36V24.224H85.4194V36H84.1234ZM92.2518 36V24.72H93.2918L100.524 34.32H100.156V24.72H101.388V36H100.364L93.1318 26.4H93.4838V36H92.2518ZM107.117 36.144C106.402 36.144 105.778 35.9787 105.245 35.648C104.712 35.3067 104.296 34.8267 103.997 34.208C103.709 33.5893 103.565 32.848 103.565 31.984C103.565 31.1093 103.709 30.3627 103.997 29.744C104.296 29.1253 104.712 28.6507 105.245 28.32C105.778 27.9893 106.402 27.824 107.117 27.824C107.842 27.824 108.466 28.0107 108.989 28.384C109.522 28.7467 109.874 29.2427 110.045 29.872H109.853L110.029 27.968H111.277C111.245 28.2773 111.213 28.592 111.181 28.912C111.16 29.2213 111.149 29.5253 111.149 29.824V36H109.853V34.112H110.029C109.858 34.7413 109.506 35.2373 108.973 35.6C108.44 35.9627 107.821 36.144 107.117 36.144ZM107.373 35.088C108.141 35.088 108.749 34.8267 109.197 34.304C109.645 33.7707 109.869 32.9973 109.869 31.984C109.869 30.96 109.645 30.1867 109.197 29.664C108.749 29.1307 108.141 28.864 107.373 28.864C106.616 28.864 106.008 29.1307 105.549 29.664C105.101 30.1867 104.877 30.96 104.877 31.984C104.877 32.9973 105.101 33.7707 105.549 34.304C106.008 34.8267 106.616 35.088 107.373 35.088ZM113.655 36V29.824C113.655 29.5253 113.639 29.2213 113.607 28.912C113.585 28.592 113.559 28.2773 113.527 27.968H114.775L114.935 29.728H114.743C114.956 29.12 115.292 28.6507 115.751 28.32C116.22 27.9893 116.785 27.824 117.447 27.824C118.119 27.824 118.663 27.984 119.079 28.304C119.505 28.624 119.793 29.12 119.943 29.792H119.703C119.905 29.184 120.263 28.704 120.775 28.352C121.287 28 121.884 27.824 122.567 27.824C123.452 27.824 124.119 28.08 124.567 28.592C125.015 29.0933 125.239 29.888 125.239 30.976V36H123.943V31.056C123.943 30.2987 123.809 29.7493 123.543 29.408C123.276 29.056 122.849 28.88 122.263 28.88C121.591 28.88 121.057 29.1147 120.663 29.584C120.279 30.0427 120.087 30.6613 120.087 31.44V36H118.791V31.056C118.791 30.2987 118.657 29.7493 118.391 29.408C118.124 29.056 117.697 28.88 117.111 28.88C116.439 28.88 115.911 29.1147 115.527 29.584C115.143 30.0427 114.951 30.6613 114.951 31.44V36H113.655ZM131.27 36.144C130.011 36.144 129.019 35.7813 128.294 35.056C127.568 34.32 127.206 33.3013 127.206 32C127.206 31.1573 127.366 30.4267 127.686 29.808C128.006 29.1787 128.454 28.6933 129.03 28.352C129.606 28 130.267 27.824 131.014 27.824C131.75 27.824 132.368 27.9787 132.87 28.288C133.371 28.5973 133.755 29.04 134.022 29.616C134.288 30.1813 134.422 30.8533 134.422 31.632V32.112H128.198V31.296H133.574L133.302 31.504C133.302 30.6507 133.11 29.984 132.726 29.504C132.342 29.024 131.771 28.784 131.014 28.784C130.214 28.784 129.59 29.0667 129.142 29.632C128.694 30.1867 128.47 30.9387 128.47 31.888V32.032C128.47 33.0347 128.715 33.7973 129.206 34.32C129.707 34.832 130.406 35.088 131.302 35.088C131.782 35.088 132.23 35.0187 132.646 34.88C133.072 34.7307 133.478 34.4907 133.862 34.16L134.31 35.072C133.958 35.4133 133.51 35.68 132.966 35.872C132.432 36.0533 131.867 36.144 131.27 36.144Z" fill="#2D2D2D"/>
<rect x="0.5" y="70.5" width="464" height="59" rx="19.5" fill="white"/>
<rect x="0.5" y="70.5" width="464" height="59" rx="19.5" stroke="#D8D8D8"/>
<path opacity="0.2" d="M37.5 94.375L30 101.25L22.5 94.375H37.5Z" fill="#009379"/>
<path d="M22.5 94.375H37.5V105C37.5 105.166 37.4342 105.325 37.3169 105.442C37.1997 105.559 37.0408 105.625 36.875 105.625H23.125C22.9592 105.625 22.8003 105.559 22.6831 105.442C22.5658 105.325 22.5 105.166 22.5 105V94.375Z" stroke="#009379" stroke-width="0.740741" stroke-linecap="round" stroke-linejoin="round"/>
<path d="M37.5 94.375L30 101.25L22.5 94.375" stroke="#009379" stroke-width="0.740741" stroke-linecap="round" stroke-linejoin="round"/>
<rect x="48" y="90" width="1" height="20" fill="#DBE3FF"/>
<path d="M62.408 106V94.72H69.608V95.808H63.704V99.728H69.256V100.832H63.704V104.896H69.608V106H62.408ZM71.6703 106V99.824C71.6703 99.5253 71.6543 99.2213 71.6223 98.912C71.6009 98.592 71.5743 98.2773 71.5423 97.968H72.7903L72.9503 99.728H72.7582C72.9716 99.12 73.3076 98.6507 73.7663 98.32C74.2356 97.9893 74.8009 97.824 75.4623 97.824C76.1343 97.824 76.6783 97.984 77.0943 98.304C77.5209 98.624 77.8089 99.12 77.9583 99.792H77.7183C77.9209 99.184 78.2783 98.704 78.7903 98.352C79.3023 98 79.8996 97.824 80.5823 97.824C81.4676 97.824 82.1343 98.08 82.5823 98.592C83.0303 99.0933 83.2543 99.888 83.2543 100.976V106H81.9583V101.056C81.9583 100.299 81.8249 99.7493 81.5583 99.408C81.2916 99.056 80.8649 98.88 80.2783 98.88C79.6063 98.88 79.0729 99.1147 78.6783 99.584C78.2943 100.043 78.1023 100.661 78.1023 101.44V106H76.8063V101.056C76.8063 100.299 76.6729 99.7493 76.4063 99.408C76.1396 99.056 75.7129 98.88 75.1263 98.88C74.4543 98.88 73.9263 99.1147 73.5423 99.584C73.1583 100.043 72.9663 100.661 72.9663 101.44V106H71.6703ZM88.7731 106.144C88.0585 106.144 87.4345 105.979 86.9011 105.648C86.3678 105.307 85.9518 104.827 85.6531 104.208C85.3651 103.589 85.2211 102.848 85.2211 101.984C85.2211 101.109 85.3651 100.363 85.6531 99.744C85.9518 99.1253 86.3678 98.6507 86.9011 98.32C87.4345 97.9893 88.0585 97.824 88.7731 97.824C89.4985 97.824 90.1225 98.0107 90.6451 98.384C91.1785 98.7467 91.5305 99.2427 91.7011 99.872H91.5091L91.6851 97.968H92.9331C92.9011 98.2773 92.8691 98.592 92.8371 98.912C92.8158 99.2213 92.8051 99.5253 92.8051 99.824V106H91.5091V104.112H91.6851C91.5145 104.741 91.1625 105.237 90.6291 105.6C90.0958 105.963 89.4771 106.144 88.7731 106.144ZM89.0291 105.088C89.7971 105.088 90.4051 104.827 90.8531 104.304C91.3011 103.771 91.5251 102.997 91.5251 101.984C91.5251 100.96 91.3011 100.187 90.8531 99.664C90.4051 99.1307 89.7971 98.864 89.0291 98.864C88.2718 98.864 87.6638 99.1307 87.2051 99.664C86.7571 100.187 86.5331 100.96 86.5331 101.984C86.5331 102.997 86.7571 103.771 87.2051 104.304C87.6638 104.827 88.2718 105.088 89.0291 105.088ZM95.3109 106V97.968H96.6069V106H95.3109ZM95.1509 96.144V94.688H96.7509V96.144H95.1509ZM99.1234 106V94.224H100.419V106H99.1234Z" fill="#2D2D2D"/>
<path d="M0 180C0 170.681 0 166.022 1.52241 162.346C3.55229 157.446 7.44577 153.552 12.3463 151.522C16.0218 150 20.6812 150 30 150H129C138.319 150 142.978 150 146.654 151.522C151.554 153.552 155.448 157.446 157.478 162.346C159 166.022 159 170.681 159 180C159 189.319 159 193.978 157.478 197.654C155.448 202.554 151.554 206.448 146.654 208.478C142.978 210 138.319 210 129 210H30C20.6812 210 16.0218 210 12.3463 208.478C7.44577 206.448 3.55229 202.554 1.52241 197.654C0 193.978 0 189.319 0 180Z" fill="#009379"/>
<path d="M55.1631 186.112C54.3845 186.112 53.6805 185.979 53.0511 185.712C52.4325 185.445 51.9418 185.061 51.5791 184.56C51.2165 184.059 51.0298 183.467 51.0191 182.784H53.4191C53.4511 183.243 53.6111 183.605 53.8991 183.872C54.1978 184.139 54.6031 184.272 55.1151 184.272C55.6378 184.272 56.0485 184.149 56.3471 183.904C56.6458 183.648 56.7951 183.317 56.7951 182.912C56.7951 182.581 56.6938 182.309 56.4911 182.096C56.2885 181.883 56.0325 181.717 55.7231 181.6C55.4245 181.472 55.0085 181.333 54.4751 181.184C53.7498 180.971 53.1578 180.763 52.6991 180.56C52.2511 180.347 51.8618 180.032 51.5311 179.616C51.2111 179.189 51.0511 178.624 51.0511 177.92C51.0511 177.259 51.2165 176.683 51.5471 176.192C51.8778 175.701 52.3418 175.328 52.9391 175.072C53.5365 174.805 54.2191 174.672 54.9871 174.672C56.1391 174.672 57.0725 174.955 57.7871 175.52C58.5125 176.075 58.9125 176.853 58.9871 177.856H56.5231C56.5018 177.472 56.3365 177.157 56.0271 176.912C55.7285 176.656 55.3285 176.528 54.8271 176.528C54.3898 176.528 54.0378 176.64 53.7711 176.864C53.5151 177.088 53.3871 177.413 53.3871 177.84C53.3871 178.139 53.4831 178.389 53.6751 178.592C53.8778 178.784 54.1231 178.944 54.4111 179.072C54.7098 179.189 55.1258 179.328 55.6591 179.488C56.3845 179.701 56.9765 179.915 57.4351 180.128C57.8938 180.341 58.2885 180.661 58.6191 181.088C58.9498 181.515 59.1151 182.075 59.1151 182.768C59.1151 183.365 58.9605 183.92 58.6511 184.432C58.3418 184.944 57.8885 185.355 57.2911 185.664C56.6938 185.963 55.9845 186.112 55.1631 186.112ZM69.4251 177.136V186H67.1691V184.88C66.8811 185.264 66.5025 185.568 66.0331 185.792C65.5745 186.005 65.0731 186.112 64.5291 186.112C63.8358 186.112 63.2225 185.968 62.6891 185.68C62.1558 185.381 61.7345 184.949 61.4251 184.384C61.1265 183.808 60.9771 183.125 60.9771 182.336V177.136H63.2171V182.016C63.2171 182.72 63.3931 183.264 63.7451 183.648C64.0971 184.021 64.5771 184.208 65.1851 184.208C65.8038 184.208 66.2891 184.021 66.6411 183.648C66.9931 183.264 67.1691 182.72 67.1691 182.016V177.136H69.4251ZM73.8753 178.432C74.1633 178.005 74.5579 177.659 75.0593 177.392C75.5713 177.125 76.1526 176.992 76.8033 176.992C77.5606 176.992 78.2433 177.179 78.8513 177.552C79.4699 177.925 79.9553 178.459 80.3073 179.152C80.6699 179.835 80.8513 180.629 80.8513 181.536C80.8513 182.443 80.6699 183.248 80.3073 183.952C79.9553 184.645 79.4699 185.184 78.8513 185.568C78.2433 185.952 77.5606 186.144 76.8033 186.144C76.1419 186.144 75.5606 186.016 75.0593 185.76C74.5686 185.493 74.1739 185.152 73.8753 184.736V186H71.6353V174.16H73.8753V178.432ZM78.5633 181.536C78.5633 181.003 78.4513 180.544 78.2273 180.16C78.0139 179.765 77.7259 179.467 77.3633 179.264C77.0113 179.061 76.6273 178.96 76.2113 178.96C75.8059 178.96 75.4219 179.067 75.0593 179.28C74.7073 179.483 74.4193 179.781 74.1953 180.176C73.9819 180.571 73.8753 181.035 73.8753 181.568C73.8753 182.101 73.9819 182.565 74.1953 182.96C74.4193 183.355 74.7073 183.659 75.0593 183.872C75.4219 184.075 75.8059 184.176 76.2113 184.176C76.6273 184.176 77.0113 184.069 77.3633 183.856C77.7259 183.643 78.0139 183.339 78.2273 182.944C78.4513 182.549 78.5633 182.08 78.5633 181.536ZM93.487 177.008C94.575 177.008 95.4497 177.344 96.111 178.016C96.783 178.677 97.119 179.605 97.119 180.8V186H94.879V181.104C94.879 180.411 94.703 179.883 94.351 179.52C93.999 179.147 93.519 178.96 92.911 178.96C92.303 178.96 91.8177 179.147 91.455 179.52C91.103 179.883 90.927 180.411 90.927 181.104V186H88.687V181.104C88.687 180.411 88.511 179.883 88.159 179.52C87.807 179.147 87.327 178.96 86.719 178.96C86.1003 178.96 85.6097 179.147 85.247 179.52C84.895 179.883 84.719 180.411 84.719 181.104V186H82.479V177.136H84.719V178.208C85.007 177.835 85.375 177.541 85.823 177.328C86.2817 177.115 86.783 177.008 87.327 177.008C88.0203 177.008 88.639 177.157 89.183 177.456C89.727 177.744 90.1483 178.16 90.447 178.704C90.735 178.192 91.151 177.781 91.695 177.472C92.2497 177.163 92.847 177.008 93.487 177.008ZM100.381 176.08C99.986 176.08 99.6553 175.957 99.3886 175.712C99.1326 175.456 99.0046 175.141 99.0046 174.768C99.0046 174.395 99.1326 174.085 99.3886 173.84C99.6553 173.584 99.986 173.456 100.381 173.456C100.775 173.456 101.101 173.584 101.357 173.84C101.623 174.085 101.757 174.395 101.757 174.768C101.757 175.141 101.623 175.456 101.357 175.712C101.101 175.957 100.775 176.08 100.381 176.08ZM101.485 177.136V186H99.2446V177.136H101.485ZM106.306 178.976V183.264C106.306 183.563 106.375 183.781 106.514 183.92C106.663 184.048 106.908 184.112 107.25 184.112H108.29V186H106.882C104.994 186 104.05 185.083 104.05 183.248V178.976H102.994V177.136H104.05V174.944H106.306V177.136H108.29V178.976H106.306Z" fill="white"/>
</svg>
