<svg width="465" height="210" viewBox="0 0 465 210" fill="none" xmlns="http://www.w3.org/2000/svg">
<path opacity="0.2" d="M8.67187 11.6998C9.44364 13.2935 10.7324 14.579 12.3281 15.3467C12.4458 15.4024 12.576 15.4265 12.7059 15.4167C12.8358 15.4068 12.9608 15.3633 13.0687 15.2904L15.4125 13.7248C15.516 13.6546 15.6357 13.6117 15.7603 13.6002C15.8849 13.5887 16.0104 13.609 16.125 13.6592L20.5125 15.5435C20.6625 15.6059 20.7877 15.7159 20.869 15.8565C20.9504 15.9971 20.9832 16.1606 20.9625 16.3217C20.8234 17.407 20.2937 18.4046 19.4723 19.1276C18.6509 19.8506 17.5943 20.2495 16.5 20.2498C13.1185 20.2498 9.87548 18.9065 7.48439 16.5154C5.0933 14.1243 3.75 10.8813 3.75 7.49979C3.75025 6.40553 4.1492 5.34886 4.87221 4.5275C5.59522 3.70613 6.59274 3.17635 7.67812 3.03729C7.83922 3.01659 8.00266 3.04943 8.14326 3.13074C8.28386 3.21206 8.39384 3.33733 8.45625 3.48729L10.3406 7.88416C10.3896 7.99699 10.4101 8.12013 10.4003 8.24275C10.3905 8.36537 10.3507 8.48369 10.2844 8.58729L8.71875 10.9685C8.64905 11.0762 8.60814 11.2 8.59993 11.328C8.59172 11.4561 8.61649 11.5841 8.67187 11.6998Z" fill="#009379"/>
<path d="M8.67187 11.6998C9.44364 13.2935 10.7324 14.579 12.3281 15.3467C12.4458 15.4024 12.576 15.4265 12.7059 15.4167C12.8358 15.4068 12.9608 15.3633 13.0687 15.2904L15.4125 13.7248C15.516 13.6546 15.6357 13.6117 15.7603 13.6002C15.8849 13.5887 16.0104 13.609 16.125 13.6592L20.5125 15.5435C20.6625 15.6059 20.7877 15.7159 20.869 15.8565C20.9504 15.9971 20.9832 16.1606 20.9625 16.3217C20.8234 17.407 20.2937 18.4046 19.4723 19.1276C18.6509 19.8506 17.5943 20.2495 16.5 20.2498C13.1185 20.2498 9.87548 18.9065 7.48439 16.5154C5.0933 14.1243 3.75 10.8813 3.75 7.49979C3.75025 6.40553 4.1492 5.34886 4.87221 4.5275C5.59522 3.70613 6.59274 3.17635 7.67812 3.03729C7.83922 3.01659 8.00266 3.04943 8.14326 3.13074C8.28386 3.21206 8.39384 3.33733 8.45625 3.48729L10.3406 7.88416C10.3896 7.99699 10.4101 8.12013 10.4003 8.24275C10.3905 8.36537 10.3507 8.48369 10.2844 8.58729L8.71875 10.9685C8.64905 11.0762 8.60814 11.2 8.59993 11.328C8.59172 11.4561 8.61649 11.5841 8.67187 11.6998Z" stroke="#009379" stroke-width="1.5" stroke-linecap="round" stroke-linejoin="round"/>
<path d="M14.9434 3.75C16.2155 4.09141 17.3755 4.76142 18.3068 5.69279C19.2382 6.62416 19.9082 7.78412 20.2496 9.05625" stroke="#009379" stroke-width="1.5" stroke-linecap="round" stroke-linejoin="round"/>
<path d="M14.166 6.64697C14.9311 6.85017 15.6289 7.25202 16.1887 7.81179C16.7485 8.37156 17.1503 9.06936 17.3535 9.83447" stroke="#009379" stroke-width="1.5" stroke-linecap="round" stroke-linejoin="round"/>
<path d="M36.176 18L39.776 13.536V14.176L36.368 9.968H37.936L40.512 13.248H40.048L42.608 9.968H44.16L40.8 14.16V13.568L44.368 18H42.784L40.032 14.496H40.512L37.728 18H36.176ZM44.7385 18L48.3385 13.536V14.176L44.9305 9.968H46.4985L49.0745 13.248H48.6105L51.1705 9.968H52.7225L49.3625 14.16V13.568L52.9305 18H51.3465L48.5945 14.496H49.0745L46.2905 18H44.7385ZM53.301 18L56.901 13.536V14.176L53.493 9.968H55.061L57.637 13.248H57.173L59.733 9.968H61.285L57.925 14.16V13.568L61.493 18H59.909L57.157 14.496H57.637L54.853 18H53.301ZM66.0354 18L69.6354 13.536V14.176L66.2274 9.968H67.7954L70.3714 13.248H69.9074L72.4674 9.968H74.0194L70.6594 14.16V13.568L74.2274 18H72.6434L69.8914 14.496H70.3714L67.5874 18H66.0354ZM74.5979 18L78.1979 13.536V14.176L74.7899 9.968H76.3579L78.9339 13.248H78.4699L81.0299 9.968H82.5819L79.2219 14.16V13.568L82.7899 18H81.2059L78.4539 14.496H78.9339L76.1499 18H74.5979ZM83.1604 18L86.7604 13.536V14.176L83.3524 9.968H84.9204L87.4964 13.248H87.0324L89.5924 9.968H91.1444L87.7844 14.16V13.568L91.3524 18H89.7684L87.0164 14.496H87.4964L84.7124 18H83.1604ZM97.5268 18L103.079 7.28V7.856H96.7747V6.72H104.279V7.712L98.9828 18H97.5268ZM110.113 18.144C108.822 18.144 107.825 17.872 107.121 17.328C106.417 16.7733 106.065 16 106.065 15.008C106.065 14.2293 106.305 13.584 106.785 13.072C107.265 12.5493 107.899 12.2347 108.689 12.128V12.368C107.974 12.2187 107.403 11.8933 106.977 11.392C106.55 10.88 106.337 10.2773 106.337 9.584C106.337 8.63467 106.673 7.89867 107.345 7.376C108.017 6.84267 108.939 6.576 110.113 6.576C111.297 6.576 112.225 6.84267 112.897 7.376C113.569 7.89867 113.905 8.63467 113.905 9.584C113.905 10.2773 113.702 10.88 113.297 11.392C112.902 11.904 112.347 12.224 111.633 12.352V12.128C112.411 12.2347 113.03 12.5493 113.489 13.072C113.947 13.584 114.177 14.2293 114.177 15.008C114.177 16 113.825 16.7733 113.121 17.328C112.417 17.872 111.414 18.144 110.113 18.144ZM110.113 17.056C111.051 17.056 111.75 16.88 112.209 16.528C112.678 16.176 112.913 15.6427 112.913 14.928C112.913 14.224 112.678 13.7013 112.209 13.36C111.75 13.008 111.051 12.832 110.113 12.832C109.174 12.832 108.47 13.008 108.001 13.36C107.542 13.7013 107.312 14.224 107.312 14.928C107.312 15.6427 107.547 16.176 108.017 16.528C108.486 16.88 109.185 17.056 110.113 17.056ZM110.113 11.744C110.923 11.744 111.542 11.5627 111.969 11.2C112.406 10.8373 112.625 10.336 112.625 9.696C112.625 9.056 112.406 8.56 111.969 8.208C111.542 7.84533 110.923 7.664 110.113 7.664C109.302 7.664 108.678 7.84533 108.241 8.208C107.814 8.56 107.601 9.056 107.601 9.696C107.601 10.336 107.814 10.8373 108.241 11.2C108.678 11.5627 109.302 11.744 110.113 11.744ZM119.706 18.144C118.426 18.144 117.445 17.648 116.762 16.656C116.08 15.664 115.738 14.2293 115.738 12.352C115.738 10.464 116.08 9.02933 116.762 8.048C117.445 7.06667 118.426 6.576 119.706 6.576C120.997 6.576 121.978 7.06667 122.65 8.048C123.333 9.02933 123.674 10.4587 123.674 12.336C123.674 14.224 123.333 15.664 122.65 16.656C121.968 17.648 120.986 18.144 119.706 18.144ZM119.706 16.992C120.602 16.992 121.269 16.6133 121.706 15.856C122.144 15.0987 122.362 13.9253 122.362 12.336C122.362 10.736 122.144 9.568 121.706 8.832C121.269 8.08533 120.602 7.712 119.706 7.712C118.821 7.712 118.154 8.08533 117.706 8.832C117.269 9.57867 117.05 10.7467 117.05 12.336C117.05 13.9253 117.269 15.0987 117.706 15.856C118.154 16.6133 118.821 16.992 119.706 16.992ZM129.3 18.144C128.009 18.144 127.012 17.872 126.308 17.328C125.604 16.7733 125.252 16 125.252 15.008C125.252 14.2293 125.492 13.584 125.972 13.072C126.452 12.5493 127.087 12.2347 127.876 12.128V12.368C127.161 12.2187 126.591 11.8933 126.164 11.392C125.737 10.88 125.524 10.2773 125.524 9.584C125.524 8.63467 125.86 7.89867 126.532 7.376C127.204 6.84267 128.127 6.576 129.3 6.576C130.484 6.576 131.412 6.84267 132.084 7.376C132.756 7.89867 133.092 8.63467 133.092 9.584C133.092 10.2773 132.889 10.88 132.484 11.392C132.089 11.904 131.535 12.224 130.82 12.352V12.128C131.599 12.2347 132.217 12.5493 132.676 13.072C133.135 13.584 133.364 14.2293 133.364 15.008C133.364 16 133.012 16.7733 132.308 17.328C131.604 17.872 130.601 18.144 129.3 18.144ZM129.3 17.056C130.239 17.056 130.937 16.88 131.396 16.528C131.865 16.176 132.1 15.6427 132.1 14.928C132.1 14.224 131.865 13.7013 131.396 13.36C130.937 13.008 130.239 12.832 129.3 12.832C128.361 12.832 127.657 13.008 127.188 13.36C126.729 13.7013 126.5 14.224 126.5 14.928C126.5 15.6427 126.735 16.176 127.204 16.528C127.673 16.88 128.372 17.056 129.3 17.056ZM129.3 11.744C130.111 11.744 130.729 11.5627 131.156 11.2C131.593 10.8373 131.812 10.336 131.812 9.696C131.812 9.056 131.593 8.56 131.156 8.208C130.729 7.84533 130.111 7.664 129.3 7.664C128.489 7.664 127.865 7.84533 127.428 8.208C127.001 8.56 126.788 9.056 126.788 9.696C126.788 10.336 127.001 10.8373 127.428 11.2C127.865 11.5627 128.489 11.744 129.3 11.744Z" fill="#2D2D2D"/>
<path opacity="0.2" d="M21 49.25L12 57.5L3 49.25H21Z" fill="#009379"/>
<path d="M3 49.25H21V62C21 62.1989 20.921 62.3897 20.7803 62.5303C20.6397 62.671 20.4489 62.75 20.25 62.75H3.75C3.55109 62.75 3.36032 62.671 3.21967 62.5303C3.07902 62.3897 3 62.1989 3 62V49.25Z" stroke="#009379" stroke-width="1.5" stroke-linecap="round" stroke-linejoin="round"/>
<path d="M21 49.25L12 57.5L3 49.25" stroke="#009379" stroke-width="1.5" stroke-linecap="round" stroke-linejoin="round"/>
<path d="M37.408 62V50.72H38.736V55.712H45.536V50.72H46.848V62H45.536V56.848H38.736V62H37.408ZM53.082 62.144C51.8233 62.144 50.8313 61.7813 50.106 61.056C49.3807 60.32 49.018 59.3013 49.018 58C49.018 57.1573 49.178 56.4267 49.498 55.808C49.818 55.1787 50.266 54.6933 50.842 54.352C51.418 54 52.0793 53.824 52.826 53.824C53.562 53.824 54.1807 53.9787 54.682 54.288C55.1833 54.5973 55.5673 55.04 55.834 55.616C56.1007 56.1813 56.234 56.8533 56.234 57.632V58.112H50.01V57.296H55.386L55.114 57.504C55.114 56.6507 54.922 55.984 54.538 55.504C54.154 55.024 53.5833 54.784 52.826 54.784C52.026 54.784 51.402 55.0667 50.954 55.632C50.506 56.1867 50.282 56.9387 50.282 57.888V58.032C50.282 59.0347 50.5273 59.7973 51.018 60.32C51.5193 60.832 52.218 61.088 53.114 61.088C53.594 61.088 54.042 61.0187 54.458 60.88C54.8847 60.7307 55.29 60.4907 55.674 60.16L56.122 61.072C55.77 61.4133 55.322 61.68 54.778 61.872C54.2447 62.0533 53.6793 62.144 53.082 62.144ZM58.2171 62V50.224H59.5131V62H58.2171ZM62.0296 62V50.224H63.3256V62H62.0296ZM69.1381 62.144C68.3701 62.144 67.6981 61.9787 67.1221 61.648C66.5568 61.3067 66.1195 60.8267 65.8101 60.208C65.5008 59.5787 65.3461 58.8373 65.3461 57.984C65.3461 57.12 65.5008 56.3787 65.8101 55.76C66.1195 55.1413 66.5568 54.6667 67.1221 54.336C67.6981 53.9947 68.3701 53.824 69.1381 53.824C69.9168 53.824 70.5888 53.9947 71.1541 54.336C71.7301 54.6667 72.1728 55.1413 72.4821 55.76C72.8021 56.3787 72.9621 57.12 72.9621 57.984C72.9621 58.8373 72.8021 59.5787 72.4821 60.208C72.1728 60.8267 71.7301 61.3067 71.1541 61.648C70.5888 61.9787 69.9168 62.144 69.1381 62.144ZM69.1381 61.088C69.9061 61.088 70.5141 60.8267 70.9621 60.304C71.4101 59.7707 71.6341 58.9973 71.6341 57.984C71.6341 56.96 71.4048 56.1867 70.9461 55.664C70.4981 55.1307 69.8955 54.864 69.1381 54.864C68.3808 54.864 67.7781 55.1307 67.3301 55.664C66.8821 56.1867 66.6581 56.96 66.6581 57.984C66.6581 58.9973 66.8821 59.7707 67.3301 60.304C67.7781 60.8267 68.3808 61.088 69.1381 61.088ZM81.6548 64.608C80.6094 64.608 79.6601 64.4427 78.8068 64.112C77.9534 63.792 77.2228 63.328 76.6148 62.72C76.0068 62.112 75.5374 61.3813 75.2068 60.528C74.8761 59.664 74.7108 58.704 74.7108 57.648C74.7108 56.592 74.8814 55.632 75.2228 54.768C75.5641 53.904 76.0548 53.1627 76.6948 52.544C77.3348 51.9147 78.0921 51.4293 78.9668 51.088C79.8414 50.7467 80.8068 50.576 81.8628 50.576C83.1428 50.576 84.2574 50.8213 85.2068 51.312C86.1668 51.8027 86.9134 52.496 87.4468 53.392C87.9801 54.2773 88.2468 55.3173 88.2468 56.512C88.2468 57.4293 88.1134 58.2293 87.8468 58.912C87.5801 59.5947 87.2121 60.1227 86.7428 60.496C86.2734 60.8693 85.7188 61.056 85.0788 61.056C84.4388 61.056 83.9534 60.8747 83.6228 60.512C83.2921 60.1387 83.1534 59.6373 83.2068 59.008L83.4948 59.088C83.2174 59.728 82.8281 60.2187 82.3268 60.56C81.8361 60.8907 81.3081 61.056 80.7428 61.056C79.9001 61.056 79.2441 60.8 78.7748 60.288C78.3161 59.7653 78.0868 59.0507 78.0868 58.144C78.0868 57.3547 78.2361 56.656 78.5348 56.048C78.8441 55.4293 79.2654 54.9493 79.7988 54.608C80.3321 54.256 80.9401 54.08 81.6228 54.08C82.2308 54.08 82.7214 54.224 83.0948 54.512C83.4788 54.8 83.7294 55.2053 83.8468 55.728H83.6548L83.9268 54.224H84.9828L84.2468 58.368C84.2254 58.5067 84.2041 58.64 84.1828 58.768C84.1721 58.896 84.1668 59.0133 84.1668 59.12C84.1668 59.472 84.2468 59.7387 84.4068 59.92C84.5774 60.1013 84.8281 60.192 85.1588 60.192C85.5854 60.192 85.9588 60.0373 86.2788 59.728C86.5988 59.4187 86.8494 58.992 87.0308 58.448C87.2121 57.8933 87.3028 57.248 87.3028 56.512C87.3028 55.488 87.0788 54.6027 86.6308 53.856C86.1828 53.0987 85.5481 52.5173 84.7268 52.112C83.9161 51.696 82.9614 51.488 81.8628 51.488C80.6361 51.488 79.5588 51.744 78.6308 52.256C77.7134 52.768 76.9988 53.488 76.4868 54.416C75.9854 55.3333 75.7348 56.4107 75.7348 57.648C75.7348 58.9067 75.9748 59.9893 76.4548 60.896C76.9348 61.8027 77.6174 62.496 78.5028 62.976C79.3988 63.4667 80.4494 63.712 81.6548 63.712C82.5401 63.712 83.3454 63.5733 84.0708 63.296C84.7961 63.0293 85.3934 62.6453 85.8628 62.144L86.3908 62.928C85.8681 63.472 85.1908 63.888 84.3588 64.176C83.5374 64.464 82.6361 64.608 81.6548 64.608ZM80.8868 60.128C81.3774 60.128 81.8148 59.9893 82.1988 59.712C82.5828 59.424 82.8814 59.0293 83.0948 58.528C83.3188 58.0267 83.4308 57.456 83.4308 56.816C83.4308 56.208 83.2974 55.7547 83.0308 55.456C82.7641 55.1573 82.3428 55.008 81.7668 55.008C81.2761 55.008 80.8334 55.1413 80.4388 55.408C80.0548 55.6747 79.7508 56.0427 79.5268 56.512C79.3028 56.9813 79.1908 57.5253 79.1908 58.144C79.1908 58.784 79.3348 59.2747 79.6228 59.616C79.9214 59.9573 80.3428 60.128 80.8868 60.128ZM94.0188 65.568C93.3254 65.568 92.6854 65.4827 92.0988 65.312C91.5121 65.1413 90.9841 64.88 90.5148 64.528L90.8988 63.552C91.2294 63.7867 91.5548 63.9733 91.8748 64.112C92.1948 64.2507 92.5254 64.352 92.8668 64.416C93.2081 64.4907 93.5708 64.528 93.9548 64.528C94.7441 64.528 95.3414 64.32 95.7468 63.904C96.1521 63.488 96.3548 62.896 96.3548 62.128V59.776H96.5148C96.3441 60.4053 95.9921 60.9067 95.4588 61.28C94.9254 61.6427 94.3014 61.824 93.5868 61.824C92.8508 61.824 92.2108 61.664 91.6668 61.344C91.1334 61.0133 90.7174 60.5493 90.4188 59.952C90.1308 59.344 89.9868 58.6293 89.9868 57.808C89.9868 56.9973 90.1308 56.2933 90.4188 55.696C90.7174 55.0987 91.1334 54.64 91.6668 54.32C92.2108 53.9893 92.8508 53.824 93.5868 53.824C94.3121 53.824 94.9361 54.0053 95.4588 54.368C95.9921 54.7307 96.3441 55.232 96.5148 55.872L96.3548 55.712L96.4988 53.968H97.7628C97.7201 54.2773 97.6881 54.592 97.6667 54.912C97.6454 55.2213 97.6348 55.5253 97.6348 55.824V61.952C97.6348 63.1467 97.3254 64.048 96.7068 64.656C96.0988 65.264 95.2028 65.568 94.0188 65.568ZM93.8268 60.768C94.6054 60.768 95.2188 60.512 95.6668 60C96.1148 59.4773 96.3388 58.7467 96.3388 57.808C96.3388 56.8693 96.1148 56.144 95.6668 55.632C95.2188 55.12 94.6054 54.864 93.8268 54.864C93.0588 54.864 92.4454 55.12 91.9868 55.632C91.5281 56.144 91.2988 56.8693 91.2988 57.808C91.2988 58.7467 91.5281 59.4773 91.9868 60C92.4454 60.512 93.0588 60.768 93.8268 60.768ZM100.123 62V55.824C100.123 55.5253 100.107 55.2213 100.075 54.912C100.054 54.592 100.027 54.2773 99.9954 53.968H101.243L101.403 55.728H101.211C101.425 55.12 101.761 54.6507 102.219 54.32C102.689 53.9893 103.254 53.824 103.915 53.824C104.587 53.824 105.131 53.984 105.547 54.304C105.974 54.624 106.262 55.12 106.411 55.792H106.171C106.374 55.184 106.731 54.704 107.243 54.352C107.755 54 108.353 53.824 109.035 53.824C109.921 53.824 110.587 54.08 111.035 54.592C111.483 55.0933 111.707 55.888 111.707 56.976V62H110.411V57.056C110.411 56.2987 110.278 55.7493 110.011 55.408C109.745 55.056 109.318 54.88 108.731 54.88C108.059 54.88 107.526 55.1147 107.131 55.584C106.747 56.0427 106.555 56.6613 106.555 57.44V62H105.259V57.056C105.259 56.2987 105.126 55.7493 104.859 55.408C104.593 55.056 104.166 54.88 103.579 54.88C102.907 54.88 102.379 55.1147 101.995 55.584C101.611 56.0427 101.419 56.6613 101.419 57.44V62H100.123ZM117.226 62.144C116.512 62.144 115.888 61.9787 115.354 61.648C114.821 61.3067 114.405 60.8267 114.106 60.208C113.818 59.5893 113.674 58.848 113.674 57.984C113.674 57.1093 113.818 56.3627 114.106 55.744C114.405 55.1253 114.821 54.6507 115.354 54.32C115.888 53.9893 116.512 53.824 117.226 53.824C117.952 53.824 118.576 54.0107 119.098 54.384C119.632 54.7467 119.984 55.2427 120.154 55.872H119.962L120.138 53.968H121.386C121.354 54.2773 121.322 54.592 121.29 54.912C121.269 55.2213 121.258 55.5253 121.258 55.824V62H119.962V60.112H120.138C119.968 60.7413 119.616 61.2373 119.082 61.6C118.549 61.9627 117.93 62.144 117.226 62.144ZM117.482 61.088C118.25 61.088 118.858 60.8267 119.306 60.304C119.754 59.7707 119.978 58.9973 119.978 57.984C119.978 56.96 119.754 56.1867 119.306 55.664C118.858 55.1307 118.25 54.864 117.482 54.864C116.725 54.864 116.117 55.1307 115.658 55.664C115.21 56.1867 114.986 56.96 114.986 57.984C114.986 58.9973 115.21 59.7707 115.658 60.304C116.117 60.8267 116.725 61.088 117.482 61.088ZM123.764 62V53.968H125.06V62H123.764ZM123.604 52.144V50.688H125.204V52.144H123.604ZM127.577 62V50.224H128.873V62H127.577ZM131.133 62V60.368H132.765V62H131.133ZM138.046 62.144C137.257 62.144 136.569 61.9733 135.982 61.632C135.406 61.2907 134.958 60.8053 134.638 60.176C134.329 59.5467 134.174 58.8 134.174 57.936C134.174 57.0613 134.334 56.32 134.654 55.712C134.974 55.0933 135.422 54.624 135.998 54.304C136.585 53.984 137.268 53.824 138.046 53.824C138.558 53.824 139.054 53.9147 139.534 54.096C140.025 54.2773 140.43 54.5333 140.75 54.864L140.286 55.792C139.966 55.4827 139.614 55.2533 139.23 55.104C138.857 54.9547 138.489 54.88 138.126 54.88C137.294 54.88 136.649 55.1413 136.19 55.664C135.732 56.1867 135.502 56.9493 135.502 57.952C135.502 58.944 135.732 59.712 136.19 60.256C136.649 60.8 137.294 61.072 138.126 61.072C138.478 61.072 138.841 61.0027 139.214 60.864C139.598 60.7253 139.956 60.496 140.286 60.176L140.75 61.088C140.42 61.4293 140.009 61.6907 139.518 61.872C139.028 62.0533 138.537 62.144 138.046 62.144ZM145.732 62.144C144.964 62.144 144.292 61.9787 143.716 61.648C143.151 61.3067 142.713 60.8267 142.404 60.208C142.095 59.5787 141.94 58.8373 141.94 57.984C141.94 57.12 142.095 56.3787 142.404 55.76C142.713 55.1413 143.151 54.6667 143.716 54.336C144.292 53.9947 144.964 53.824 145.732 53.824C146.511 53.824 147.183 53.9947 147.748 54.336C148.324 54.6667 148.767 55.1413 149.076 55.76C149.396 56.3787 149.556 57.12 149.556 57.984C149.556 58.8373 149.396 59.5787 149.076 60.208C148.767 60.8267 148.324 61.3067 147.748 61.648C147.183 61.9787 146.511 62.144 145.732 62.144ZM145.732 61.088C146.5 61.088 147.108 60.8267 147.556 60.304C148.004 59.7707 148.228 58.9973 148.228 57.984C148.228 56.96 147.999 56.1867 147.54 55.664C147.092 55.1307 146.489 54.864 145.732 54.864C144.975 54.864 144.372 55.1307 143.924 55.664C143.476 56.1867 143.252 56.96 143.252 57.984C143.252 58.9973 143.476 59.7707 143.924 60.304C144.372 60.8267 144.975 61.088 145.732 61.088ZM151.577 62V55.824C151.577 55.5253 151.561 55.2213 151.529 54.912C151.507 54.592 151.481 54.2773 151.449 53.968H152.697L152.857 55.728H152.664C152.878 55.12 153.214 54.6507 153.673 54.32C154.142 53.9893 154.707 53.824 155.369 53.824C156.041 53.824 156.585 53.984 157.001 54.304C157.427 54.624 157.715 55.12 157.865 55.792H157.625C157.827 55.184 158.185 54.704 158.697 54.352C159.209 54 159.806 53.824 160.489 53.824C161.374 53.824 162.041 54.08 162.489 54.592C162.937 55.0933 163.161 55.888 163.161 56.976V62H161.865V57.056C161.865 56.2987 161.731 55.7493 161.465 55.408C161.198 55.056 160.771 54.88 160.185 54.88C159.513 54.88 158.979 55.1147 158.585 55.584C158.201 56.0427 158.009 56.6613 158.009 57.44V62H156.713V57.056C156.713 56.2987 156.579 55.7493 156.313 55.408C156.046 55.056 155.619 54.88 155.033 54.88C154.361 54.88 153.833 55.1147 153.449 55.584C153.065 56.0427 152.873 56.6613 152.873 57.44V62H151.577Z" fill="#2D2D2D"/>
<path d="M0.735 144.65C0.735 143.208 1.057 141.92 1.701 140.786C2.359 139.638 3.248 138.749 4.368 138.119C5.502 137.475 6.769 137.153 8.169 137.153C9.807 137.153 11.242 137.573 12.474 138.413C13.706 139.253 14.567 140.415 15.057 141.899H11.676C11.34 141.199 10.864 140.674 10.248 140.324C9.646 139.974 8.946 139.799 8.148 139.799C7.294 139.799 6.531 140.002 5.859 140.408C5.201 140.8 4.683 141.36 4.305 142.088C3.941 142.816 3.759 143.67 3.759 144.65C3.759 145.616 3.941 146.47 4.305 147.212C4.683 147.94 5.201 148.507 5.859 148.913C6.531 149.305 7.294 149.501 8.148 149.501C8.946 149.501 9.646 149.326 10.248 148.976C10.864 148.612 11.34 148.08 11.676 147.38H15.057C14.567 148.878 13.706 150.047 12.474 150.887C11.256 151.713 9.821 152.126 8.169 152.126C6.769 152.126 5.502 151.811 4.368 151.181C3.248 150.537 2.359 149.648 1.701 148.514C1.057 147.38 0.735 146.092 0.735 144.65ZM22.7341 152.189C21.6141 152.189 20.6061 151.944 19.7101 151.454C18.8141 150.95 18.1071 150.243 17.5891 149.333C17.0851 148.423 16.8331 147.373 16.8331 146.183C16.8331 144.993 17.0921 143.943 17.6101 143.033C18.1421 142.123 18.8631 141.423 19.7731 140.933C20.6831 140.429 21.6981 140.177 22.8181 140.177C23.9381 140.177 24.9531 140.429 25.8631 140.933C26.7731 141.423 27.4871 142.123 28.0051 143.033C28.5371 143.943 28.8031 144.993 28.8031 146.183C28.8031 147.373 28.5301 148.423 27.9841 149.333C27.4521 150.243 26.7241 150.95 25.8001 151.454C24.8901 151.944 23.8681 152.189 22.7341 152.189ZM22.7341 149.627C23.2661 149.627 23.7631 149.501 24.2251 149.249C24.7011 148.983 25.0791 148.591 25.3591 148.073C25.6391 147.555 25.7791 146.925 25.7791 146.183C25.7791 145.077 25.4851 144.23 24.8971 143.642C24.3231 143.04 23.6161 142.739 22.7761 142.739C21.9361 142.739 21.2291 143.04 20.6551 143.642C20.0951 144.23 19.8151 145.077 19.8151 146.183C19.8151 147.289 20.0881 148.143 20.6341 148.745C21.1941 149.333 21.8941 149.627 22.7341 149.627ZM37.4067 140.198C38.7927 140.198 39.9127 140.639 40.7667 141.521C41.6207 142.389 42.0477 143.607 42.0477 145.175V152H39.1077V145.574C39.1077 144.65 38.8767 143.943 38.4147 143.453C37.9527 142.949 37.3227 142.697 36.5247 142.697C35.7127 142.697 35.0687 142.949 34.5927 143.453C34.1307 143.943 33.8997 144.65 33.8997 145.574V152H30.9597V140.366H33.8997V141.815C34.2917 141.311 34.7887 140.919 35.3907 140.639C36.0067 140.345 36.6787 140.198 37.4067 140.198ZM51.2905 140.198C52.6765 140.198 53.7965 140.639 54.6505 141.521C55.5045 142.389 55.9315 143.607 55.9315 145.175V152H52.9915V145.574C52.9915 144.65 52.7605 143.943 52.2985 143.453C51.8365 142.949 51.2065 142.697 50.4085 142.697C49.5965 142.697 48.9525 142.949 48.4765 143.453C48.0145 143.943 47.7835 144.65 47.7835 145.574V152H44.8435V140.366H47.7835V141.815C48.1755 141.311 48.6725 140.919 49.2745 140.639C49.8905 140.345 50.5625 140.198 51.2905 140.198ZM69.5423 145.931C69.5423 146.351 69.5143 146.729 69.4583 147.065H60.9533C61.0233 147.905 61.3173 148.563 61.8353 149.039C62.3533 149.515 62.9903 149.753 63.7463 149.753C64.8383 149.753 65.6153 149.284 66.0773 148.346H69.2483C68.9123 149.466 68.2683 150.39 67.3163 151.118C66.3643 151.832 65.1953 152.189 63.8093 152.189C62.6893 152.189 61.6813 151.944 60.7853 151.454C59.9033 150.95 59.2103 150.243 58.7063 149.333C58.2163 148.423 57.9713 147.373 57.9713 146.183C57.9713 144.979 58.2163 143.922 58.7063 143.012C59.1963 142.102 59.8823 141.402 60.7643 140.912C61.6463 140.422 62.6613 140.177 63.8093 140.177C64.9153 140.177 65.9023 140.415 66.7703 140.891C67.6523 141.367 68.3313 142.046 68.8073 142.928C69.2973 143.796 69.5423 144.797 69.5423 145.931ZM66.4973 145.091C66.4833 144.335 66.2103 143.733 65.6783 143.285C65.1463 142.823 64.4953 142.592 63.7253 142.592C62.9973 142.592 62.3813 142.816 61.8773 143.264C61.3873 143.698 61.0863 144.307 60.9743 145.091H66.4973ZM70.9323 146.183C70.9323 144.979 71.1773 143.929 71.6673 143.033C72.1573 142.123 72.8363 141.423 73.7043 140.933C74.5723 140.429 75.5663 140.177 76.6863 140.177C78.1283 140.177 79.3183 140.541 80.2563 141.269C81.2083 141.983 81.8453 142.991 82.1673 144.293H78.9963C78.8283 143.789 78.5413 143.397 78.1353 143.117C77.7433 142.823 77.2533 142.676 76.6653 142.676C75.8253 142.676 75.1603 142.984 74.6703 143.6C74.1803 144.202 73.9353 145.063 73.9353 146.183C73.9353 147.289 74.1803 148.15 74.6703 148.766C75.1603 149.368 75.8253 149.669 76.6653 149.669C77.8553 149.669 78.6323 149.137 78.9963 148.073H82.1673C81.8453 149.333 81.2083 150.334 80.2563 151.076C79.3043 151.818 78.1143 152.189 76.6863 152.189C75.5663 152.189 74.5723 151.944 73.7043 151.454C72.8363 150.95 72.1573 150.25 71.6673 149.354C71.1773 148.444 70.9323 147.387 70.9323 146.183ZM87.7441 142.781V148.409C87.7441 148.801 87.8351 149.088 88.0171 149.27C88.2131 149.438 88.5351 149.522 88.9831 149.522H90.3481V152H88.5001C86.0221 152 84.7831 150.796 84.7831 148.388V142.781H83.3971V140.366H84.7831V137.489H87.7441V140.366H90.3481V142.781H87.7441ZM113.595 140.366L110.193 152H107.022L104.901 143.873L102.78 152H99.5876L96.1646 140.366H99.1466L101.205 149.228L103.431 140.366H106.539L108.723 149.207L110.781 140.366H113.595ZM116.676 138.98C116.158 138.98 115.724 138.819 115.374 138.497C115.038 138.161 114.87 137.748 114.87 137.258C114.87 136.768 115.038 136.362 115.374 136.04C115.724 135.704 116.158 135.536 116.676 135.536C117.194 135.536 117.621 135.704 117.957 136.04C118.307 136.362 118.482 136.768 118.482 137.258C118.482 137.748 118.307 138.161 117.957 138.497C117.621 138.819 117.194 138.98 116.676 138.98ZM118.125 140.366V152H115.185V140.366H118.125ZM124.453 142.781V148.409C124.453 148.801 124.544 149.088 124.726 149.27C124.922 149.438 125.244 149.522 125.692 149.522H127.057V152H125.209C122.731 152 121.492 150.796 121.492 148.388V142.781H120.106V140.366H121.492V137.489H124.453V140.366H127.057V142.781H124.453ZM135.724 140.198C136.606 140.198 137.39 140.394 138.076 140.786C138.762 141.164 139.294 141.731 139.672 142.487C140.064 143.229 140.26 144.125 140.26 145.175V152H137.32V145.574C137.32 144.65 137.089 143.943 136.627 143.453C136.165 142.949 135.535 142.697 134.737 142.697C133.925 142.697 133.281 142.949 132.805 143.453C132.343 143.943 132.112 144.65 132.112 145.574V152H129.172V136.46H132.112V141.815C132.49 141.311 132.994 140.919 133.624 140.639C134.254 140.345 134.954 140.198 135.724 140.198ZM159.042 140.366V152H156.081V150.53C155.703 151.034 155.206 151.433 154.59 151.727C153.988 152.007 153.33 152.147 152.616 152.147C151.706 152.147 150.901 151.958 150.201 151.58C149.501 151.188 148.948 150.621 148.542 149.879C148.15 149.123 147.954 148.227 147.954 147.191V140.366H150.894V146.771C150.894 147.695 151.125 148.409 151.587 148.913C152.049 149.403 152.679 149.648 153.477 149.648C154.289 149.648 154.926 149.403 155.388 148.913C155.85 148.409 156.081 147.695 156.081 146.771V140.366H159.042ZM166.395 152.189C165.443 152.189 164.589 152.021 163.833 151.685C163.077 151.335 162.475 150.866 162.027 150.278C161.593 149.69 161.355 149.039 161.313 148.325H164.274C164.33 148.773 164.547 149.144 164.925 149.438C165.317 149.732 165.8 149.879 166.374 149.879C166.934 149.879 167.368 149.767 167.676 149.543C167.998 149.319 168.159 149.032 168.159 148.682C168.159 148.304 167.963 148.024 167.571 147.842C167.193 147.646 166.584 147.436 165.744 147.212C164.876 147.002 164.162 146.785 163.602 146.561C163.056 146.337 162.58 145.994 162.174 145.532C161.782 145.07 161.586 144.447 161.586 143.663C161.586 143.019 161.768 142.431 162.132 141.899C162.51 141.367 163.042 140.947 163.728 140.639C164.428 140.331 165.247 140.177 166.185 140.177C167.571 140.177 168.677 140.527 169.503 141.227C170.329 141.913 170.784 142.844 170.868 144.02H168.054C168.012 143.558 167.816 143.194 167.466 142.928C167.13 142.648 166.675 142.508 166.101 142.508C165.569 142.508 165.156 142.606 164.862 142.802C164.582 142.998 164.442 143.271 164.442 143.621C164.442 144.013 164.638 144.314 165.03 144.524C165.422 144.72 166.031 144.923 166.857 145.133C167.697 145.343 168.39 145.56 168.936 145.784C169.482 146.008 169.951 146.358 170.343 146.834C170.749 147.296 170.959 147.912 170.973 148.682C170.973 149.354 170.784 149.956 170.406 150.488C170.042 151.02 169.51 151.44 168.81 151.748C168.124 152.042 167.319 152.189 166.395 152.189Z" fill="#2D2D2D"/>
<g clip-path="url(#clip0_543_2767)">
<path fill-rule="evenodd" clip-rule="evenodd" d="M0 194C0 185.163 7.16344 178 16 178C24.8366 178 32 185.163 32 194C32 202.837 24.8366 210 16 210C7.16344 210 0 202.837 0 194Z" fill="#E5F4F2"/>
<path fill-rule="evenodd" clip-rule="evenodd" d="M16.0009 185.467C13.6834 185.467 13.3925 185.477 12.4823 185.518C11.5739 185.56 10.9538 185.704 10.4112 185.915C9.84993 186.133 9.37384 186.424 8.89952 186.899C8.42485 187.373 8.13329 187.849 7.91462 188.41C7.70307 188.953 7.55906 189.573 7.51818 190.481C7.47746 191.392 7.4668 191.683 7.4668 194C7.4668 196.318 7.47711 196.608 7.51835 197.518C7.56013 198.426 7.70395 199.046 7.9148 199.589C8.13294 200.15 8.4245 200.626 8.89899 201.101C9.37313 201.575 9.84922 201.868 10.4101 202.086C10.9531 202.297 11.5733 202.44 12.4816 202.482C13.3918 202.524 13.6825 202.534 15.9999 202.534C18.3176 202.534 18.6075 202.524 19.5178 202.482C20.4262 202.44 21.047 202.297 21.59 202.086C22.151 201.868 22.6264 201.575 23.1006 201.101C23.5752 200.626 23.8668 200.15 24.0855 199.589C24.2952 199.046 24.4392 198.426 24.4819 197.518C24.5228 196.608 24.5335 196.318 24.5335 194C24.5335 191.683 24.5228 191.392 24.4819 190.482C24.4392 189.573 24.2952 188.953 24.0855 188.41C23.8668 187.849 23.5752 187.373 23.1006 186.899C22.6259 186.424 22.1512 186.133 21.5894 185.915C21.0454 185.704 20.425 185.56 19.5165 185.518C18.6063 185.477 18.3165 185.467 15.9983 185.467H16.0009ZM15.2354 187.005C15.4626 187.004 15.7161 187.005 16.0009 187.005C18.2793 187.005 18.5494 187.013 19.4491 187.054C20.2811 187.092 20.7327 187.231 21.0335 187.348C21.4317 187.502 21.7156 187.687 22.0141 187.986C22.3128 188.284 22.4977 188.569 22.6527 188.967C22.7695 189.268 22.9087 189.719 22.9466 190.551C22.9875 191.451 22.9963 191.721 22.9963 193.998C22.9963 196.276 22.9875 196.546 22.9466 197.445C22.9085 198.277 22.7695 198.729 22.6527 199.029C22.498 199.428 22.3128 199.711 22.0141 200.01C21.7154 200.308 21.4319 200.493 21.0335 200.648C20.733 200.765 20.2811 200.904 19.4491 200.942C18.5495 200.983 18.2793 200.992 16.0009 200.992C13.7223 200.992 13.4522 200.983 12.5527 200.942C11.7207 200.904 11.2691 200.765 10.9681 200.648C10.5699 200.493 10.2855 200.308 9.98679 200.01C9.68812 199.711 9.50323 199.427 9.3482 199.029C9.2314 198.728 9.0922 198.277 9.05433 197.445C9.01344 196.545 9.00527 196.275 9.00527 193.996C9.00527 191.717 9.01344 191.449 9.05433 190.549C9.09238 189.717 9.2314 189.265 9.3482 188.965C9.50287 188.566 9.68812 188.282 9.98679 187.983C10.2855 187.685 10.5699 187.5 10.9681 187.345C11.2689 187.227 11.7207 187.089 12.5527 187.05C13.3399 187.015 13.645 187.004 15.2354 187.002V187.005ZM20.556 188.421C19.9906 188.421 19.532 188.88 19.532 189.445C19.532 190.01 19.9906 190.469 20.556 190.469C21.1213 190.469 21.58 190.01 21.58 189.445C21.58 188.88 21.1213 188.421 20.556 188.421ZM16.0009 189.618C13.5808 189.618 11.6187 191.58 11.6187 194C11.6187 196.42 13.5808 198.382 16.0009 198.382C18.4211 198.382 20.3825 196.42 20.3825 194C20.3825 191.58 18.4211 189.618 16.0009 189.618ZM16.0009 191.156C17.5718 191.156 18.8454 192.429 18.8454 194C18.8454 195.571 17.5718 196.845 16.0009 196.845C14.4299 196.845 13.1564 195.571 13.1564 194C13.1564 192.429 14.4299 191.156 16.0009 191.156Z" fill="#2D2D2D"/>
<path fill-rule="evenodd" clip-rule="evenodd" d="M48 194C48 185.163 55.1634 178 64 178C72.8366 178 80 185.163 80 194C80 202.837 72.8366 210 64 210C55.1634 210 48 202.837 48 194Z" fill="#E5F4F2"/>
<path fill-rule="evenodd" clip-rule="evenodd" d="M72.5335 193.988C72.5335 194.565 72.4747 195.142 72.3593 195.703C72.2468 196.252 72.0801 196.79 71.8618 197.305C71.6485 197.811 71.3839 198.298 71.0747 198.752C70.7701 199.204 70.4192 199.627 70.0338 200.013C69.6475 200.398 69.2225 200.748 68.7712 201.053C68.3154 201.361 67.8275 201.625 67.3216 201.839C66.8061 202.056 66.2665 202.223 65.7186 202.335C65.1561 202.451 64.5777 202.51 63.9997 202.51C63.4214 202.51 62.843 202.451 62.2813 202.335C61.7326 202.223 61.1929 202.056 60.6779 201.839C60.1721 201.625 59.6837 201.361 59.2278 201.053C58.7766 200.748 58.3516 200.398 57.9661 200.013C57.5803 199.627 57.2294 199.204 56.9244 198.752C56.6169 198.298 56.3518 197.81 56.1377 197.305C55.9193 196.79 55.7522 196.252 55.6393 195.703C55.5251 195.142 55.4668 194.565 55.4668 193.988C55.4668 193.411 55.5251 192.833 55.6393 192.273C55.7523 191.724 55.9193 191.185 56.1377 190.671C56.3519 190.165 56.6169 189.678 56.9244 189.223C57.2294 188.771 57.5803 188.349 57.9661 187.962C58.3516 187.578 58.7766 187.229 59.2279 186.923C59.6837 186.615 60.1721 186.351 60.6779 186.136C61.193 185.918 61.7326 185.751 62.2814 185.64C62.8431 185.525 63.4214 185.467 63.9998 185.467C64.5777 185.467 65.1561 185.525 65.7186 185.64C66.2665 185.751 66.8061 185.918 67.3216 186.136C67.8275 186.351 68.3154 186.615 68.7713 186.923C69.2225 187.229 69.6476 187.578 70.0338 187.962C70.4193 188.349 70.7701 188.771 71.0747 189.223C71.3839 189.678 71.6485 190.165 71.8618 190.671C72.0801 191.185 72.2468 191.724 72.3593 192.273C72.4747 192.833 72.5335 193.411 72.5335 193.988ZM60.8904 187.406C58.8582 188.364 57.3414 190.234 56.8685 192.488C57.0606 192.49 60.0974 192.528 63.5963 191.6C62.335 189.362 60.9875 187.536 60.8904 187.406ZM64.2001 192.72C60.4479 193.842 56.8472 193.761 56.7181 193.756C56.716 193.834 56.7122 193.91 56.7122 193.988C56.7122 195.858 57.4185 197.562 58.5794 198.851C58.5769 198.847 60.5712 195.314 64.5039 194.044C64.5989 194.012 64.6956 193.984 64.7914 193.957C64.6085 193.543 64.4089 193.129 64.2001 192.72ZM68.8125 188.527C67.5295 187.397 65.8448 186.712 63.9997 186.712C63.4076 186.712 62.833 186.783 62.2825 186.916C62.3917 187.062 63.7605 188.875 65.0068 191.161C67.7566 190.131 68.7945 188.553 68.8125 188.527ZM65.2882 195.162C65.2719 195.168 65.2557 195.172 65.2398 195.178C60.9401 196.675 59.536 199.692 59.5208 199.724C60.7579 200.685 62.3097 201.265 63.9998 201.265C65.009 201.265 65.9703 201.06 66.8449 200.688C66.737 200.052 66.3136 197.824 65.2882 195.162ZM68.072 200.023C69.7083 198.921 70.8705 197.17 71.1946 195.142C71.0446 195.093 69.0058 194.449 66.6536 194.825C67.6095 197.448 67.9978 199.585 68.072 200.023ZM65.5678 192.245C65.7369 192.592 65.9007 192.945 66.0519 193.3C66.1057 193.427 66.1582 193.552 66.2095 193.677C68.7129 193.362 71.1793 193.892 71.2847 193.913C71.2681 192.188 70.6501 190.605 69.6276 189.366C69.6138 189.385 68.445 191.071 65.5678 192.245Z" fill="#2D2D2D"/>
<path fill-rule="evenodd" clip-rule="evenodd" d="M96 194C96 185.163 103.163 178 112 178C120.837 178 128 185.163 128 194C128 202.837 120.837 210 112 210C103.163 210 96 202.837 96 194Z" fill="#E5F4F2"/>
<path fill-rule="evenodd" clip-rule="evenodd" d="M114.372 190.446H118.892V189.152H114.372V190.446ZM115.443 193.272C115.155 193.565 114.973 193.962 114.899 194.463H118.414C118.377 193.928 118.194 193.524 117.871 193.246C117.544 192.97 117.142 192.832 116.66 192.832C116.138 192.832 115.731 192.979 115.443 193.272ZM118.493 191.533C119.038 191.773 119.487 192.153 119.84 192.672C120.162 193.129 120.369 193.66 120.463 194.263C120.518 194.615 120.541 195.126 120.531 195.79H114.849C114.883 196.561 115.152 197.103 115.666 197.413C115.977 197.606 116.351 197.703 116.791 197.703C117.253 197.703 117.631 197.585 117.921 197.35C118.081 197.223 118.222 197.046 118.342 196.821H120.424C120.369 197.276 120.116 197.74 119.669 198.212C118.97 198.959 117.992 199.333 116.734 199.333C115.696 199.333 114.78 199.018 113.988 198.387C113.192 197.756 112.797 196.729 112.797 195.307C112.797 193.974 113.155 192.951 113.871 192.239C114.588 191.529 115.516 191.172 116.659 191.172C117.338 191.172 117.95 191.293 118.493 191.533ZM105.569 194.49V197.265H108.13C108.587 197.265 108.945 197.204 109.198 197.082C109.661 196.854 109.892 196.423 109.892 195.783C109.892 195.241 109.669 194.869 109.221 194.667C108.97 194.554 108.617 194.494 108.166 194.49H105.569ZM105.569 190.473V192.769H108.134C108.59 192.769 108.963 192.683 109.25 192.51C109.535 192.338 109.678 192.033 109.678 191.598C109.678 191.112 109.489 190.792 109.112 190.635C108.785 190.528 108.37 190.473 107.865 190.473H105.569ZM111.297 189.775C111.619 190.218 111.78 190.746 111.78 191.363C111.78 191.998 111.619 192.509 111.293 192.896C111.11 193.111 110.842 193.309 110.488 193.488C111.026 193.682 111.431 193.987 111.707 194.406C111.98 194.824 112.118 195.333 112.118 195.931C112.118 196.547 111.961 197.101 111.647 197.59C111.448 197.914 111.199 198.187 110.9 198.409C110.564 198.663 110.168 198.836 109.709 198.931C109.251 199.025 108.755 199.071 108.219 199.071H103.467V188.667H108.563C109.85 188.685 110.76 189.055 111.297 189.775Z" fill="#2D2D2D"/>
<path fill-rule="evenodd" clip-rule="evenodd" d="M144 194C144 185.163 151.163 178 160 178C168.837 178 176 185.163 176 194C176 202.837 168.837 210 160 210C151.163 210 144 202.837 144 194Z" fill="#E5F4F2"/>
<path fill-rule="evenodd" clip-rule="evenodd" d="M159.521 191.005L159.554 191.559L158.995 191.491C156.958 191.231 155.178 190.35 153.668 188.87L152.929 188.135L152.739 188.678C152.336 189.887 152.593 191.163 153.433 192.022C153.88 192.497 153.779 192.564 153.007 192.282C152.739 192.191 152.504 192.124 152.481 192.158C152.403 192.237 152.672 193.265 152.884 193.672C153.175 194.237 153.768 194.79 154.417 195.118L154.966 195.378L154.317 195.389C153.69 195.389 153.668 195.4 153.735 195.638C153.959 196.372 154.843 197.152 155.828 197.491L156.521 197.728L155.917 198.089C155.022 198.609 153.97 198.903 152.918 198.925C152.414 198.937 152 198.982 152 199.016C152 199.129 153.365 199.762 154.16 200.01C156.544 200.745 159.375 200.428 161.502 199.174C163.013 198.281 164.523 196.508 165.229 194.79C165.609 193.875 165.99 192.203 165.99 191.401C165.99 190.881 166.023 190.813 166.65 190.192C167.019 189.83 167.366 189.435 167.433 189.322C167.545 189.107 167.534 189.107 166.963 189.299C166.012 189.638 165.878 189.593 166.348 189.084C166.695 188.723 167.109 188.067 167.109 187.875C167.109 187.841 166.941 187.898 166.751 188C166.549 188.113 166.102 188.282 165.766 188.384L165.161 188.576L164.613 188.203C164.311 188 163.886 187.774 163.662 187.706C163.091 187.548 162.218 187.57 161.703 187.751C160.304 188.26 159.42 189.57 159.521 191.005Z" fill="#2D2D2D"/>
</g>
<defs>
<clipPath id="clip0_543_2767">
<rect width="176" height="32" fill="white" transform="translate(0 178)"/>
</clipPath>
</defs>
</svg>
