<svg width="118" height="30" viewBox="0 0 118 30" fill="none" xmlns="http://www.w3.org/2000/svg">
<path d="M3.41431 19.224H7.09431V21H1.17431V9.832H3.41431V19.224ZM16.7581 16.376C16.7581 16.696 16.7367 16.984 16.6941 17.24H10.2141C10.2674 17.88 10.4914 18.3813 10.8861 18.744C11.2807 19.1067 11.7661 19.288 12.3421 19.288C13.1741 19.288 13.7661 18.9307 14.1181 18.216H16.5341C16.2781 19.0693 15.7874 19.7733 15.0621 20.328C14.3367 20.872 13.4461 21.144 12.3901 21.144C11.5367 21.144 10.7687 20.9573 10.0861 20.584C9.41406 20.2 8.88606 19.6613 8.50206 18.968C8.12873 18.2747 7.94206 17.4747 7.94206 16.568C7.94206 15.6507 8.12873 14.8453 8.50206 14.152C8.8754 13.4587 9.39806 12.9253 10.0701 12.552C10.7421 12.1787 11.5154 11.992 12.3901 11.992C13.2327 11.992 13.9847 12.1733 14.6461 12.536C15.3181 12.8987 15.8354 13.416 16.1981 14.088C16.5714 14.7493 16.7581 15.512 16.7581 16.376ZM14.4381 15.736C14.4274 15.16 14.2194 14.7013 13.8141 14.36C13.4087 14.008 12.9127 13.832 12.3261 13.832C11.7714 13.832 11.3021 14.0027 10.9181 14.344C10.5447 14.6747 10.3154 15.1387 10.2301 15.736H14.4381ZM17.8171 16.536C17.8171 15.64 17.9931 14.8453 18.3451 14.152C18.7077 13.4587 19.1931 12.9253 19.8011 12.552C20.4197 12.1787 21.1077 11.992 21.8651 11.992C22.5264 11.992 23.1024 12.1253 23.5931 12.392C24.0944 12.6587 24.4944 12.9947 24.7931 13.4V12.136H27.0491V21H24.7931V19.704C24.5051 20.12 24.1051 20.4667 23.5931 20.744C23.0917 21.0107 22.5104 21.144 21.8491 21.144C21.1024 21.144 20.4197 20.952 19.8011 20.568C19.1931 20.184 18.7077 19.6453 18.3451 18.952C17.9931 18.248 17.8171 17.4427 17.8171 16.536ZM24.7931 16.568C24.7931 16.024 24.6864 15.56 24.4731 15.176C24.2597 14.7813 23.9717 14.4827 23.6091 14.28C23.2464 14.0667 22.8571 13.96 22.4411 13.96C22.0251 13.96 21.6411 14.0613 21.2891 14.264C20.9371 14.4667 20.6491 14.7653 20.4251 15.16C20.2117 15.544 20.1051 16.0027 20.1051 16.536C20.1051 17.0693 20.2117 17.5387 20.4251 17.944C20.6491 18.3387 20.9371 18.6427 21.2891 18.856C21.6517 19.0693 22.0357 19.176 22.4411 19.176C22.8571 19.176 23.2464 19.0747 23.6091 18.872C23.9717 18.6587 24.2597 18.36 24.4731 17.976C24.6864 17.5813 24.7931 17.112 24.7931 16.568ZM31.4768 13.512C31.7648 13.0427 32.1381 12.6747 32.5968 12.408C33.0661 12.1413 33.5995 12.008 34.1968 12.008V14.36H33.6048C32.9008 14.36 32.3675 14.5253 32.0048 14.856C31.6528 15.1867 31.4768 15.7627 31.4768 16.584V21H29.2368V12.136H31.4768V13.512ZM40.6176 12.008C41.6736 12.008 42.5269 12.344 43.1776 13.016C43.8282 13.6773 44.1536 14.6053 44.1536 15.8V21H41.9136V16.104C41.9136 15.4 41.7376 14.8613 41.3856 14.488C41.0336 14.104 40.5536 13.912 39.9456 13.912C39.3269 13.912 38.8362 14.104 38.4736 14.488C38.1216 14.8613 37.9456 15.4 37.9456 16.104V21H35.7056V12.136H37.9456V13.24C38.2442 12.856 38.6229 12.5573 39.0816 12.344C39.5509 12.12 40.0629 12.008 40.6176 12.008ZM62.2722 9.832V21H60.0322V13.736L57.0402 21H55.3442L52.3362 13.736V21H50.0962V9.832H52.6402L56.1922 18.136L59.7442 9.832H62.2722ZM68.4228 21.144C67.5695 21.144 66.8015 20.9573 66.1188 20.584C65.4361 20.2 64.8975 19.6613 64.5028 18.968C64.1188 18.2747 63.9268 17.4747 63.9268 16.568C63.9268 15.6613 64.1241 14.8613 64.5188 14.168C64.9241 13.4747 65.4735 12.9413 66.1668 12.568C66.8601 12.184 67.6335 11.992 68.4868 11.992C69.3401 11.992 70.1135 12.184 70.8068 12.568C71.5001 12.9413 72.0441 13.4747 72.4388 14.168C72.8441 14.8613 73.0468 15.6613 73.0468 16.568C73.0468 17.4747 72.8388 18.2747 72.4228 18.968C72.0175 19.6613 71.4628 20.2 70.7588 20.584C70.0655 20.9573 69.2868 21.144 68.4228 21.144ZM68.4228 19.192C68.8281 19.192 69.2068 19.096 69.5588 18.904C69.9215 18.7013 70.2095 18.4027 70.4228 18.008C70.6361 17.6133 70.7428 17.1333 70.7428 16.568C70.7428 15.7253 70.5188 15.08 70.0708 14.632C69.6335 14.1733 69.0948 13.944 68.4548 13.944C67.8148 13.944 67.2761 14.1733 66.8388 14.632C66.4121 15.08 66.1988 15.7253 66.1988 16.568C66.1988 17.4107 66.4068 18.0613 66.8228 18.52C67.2495 18.968 67.7828 19.192 68.4228 19.192ZM76.9299 13.512C77.2179 13.0427 77.5913 12.6747 78.0499 12.408C78.5193 12.1413 79.0526 12.008 79.6499 12.008V14.36H79.0579C78.3539 14.36 77.8206 14.5253 77.4579 14.856C77.1059 15.1867 76.9299 15.7627 76.9299 16.584V21H74.6899V12.136H76.9299V13.512ZM89.3987 16.376C89.3987 16.696 89.3774 16.984 89.3347 17.24H82.8547C82.908 17.88 83.132 18.3813 83.5267 18.744C83.9214 19.1067 84.4067 19.288 84.9827 19.288C85.8147 19.288 86.4067 18.9307 86.7587 18.216H89.1747C88.9187 19.0693 88.428 19.7733 87.7027 20.328C86.9774 20.872 86.0867 21.144 85.0307 21.144C84.1774 21.144 83.4094 20.9573 82.7267 20.584C82.0547 20.2 81.5267 19.6613 81.1427 18.968C80.7694 18.2747 80.5827 17.4747 80.5827 16.568C80.5827 15.6507 80.7694 14.8453 81.1427 14.152C81.516 13.4587 82.0387 12.9253 82.7107 12.552C83.3827 12.1787 84.156 11.992 85.0307 11.992C85.8734 11.992 86.6254 12.1733 87.2867 12.536C87.9587 12.8987 88.476 13.416 88.8387 14.088C89.212 14.7493 89.3987 15.512 89.3987 16.376ZM87.0787 15.736C87.068 15.16 86.86 14.7013 86.4547 14.36C86.0494 14.008 85.5534 13.832 84.9667 13.832C84.412 13.832 83.9427 14.0027 83.5587 14.344C83.1854 14.6747 82.956 15.1387 82.8707 15.736H87.0787Z" fill="#009379"/>
<path d="M101.125 15H114.875" stroke="#009379" stroke-width="1.5" stroke-linecap="round" stroke-linejoin="round"/>
<path d="M109.25 9.375L114.875 15L109.25 20.625" stroke="#009379" stroke-width="1.5" stroke-linecap="round" stroke-linejoin="round"/>
</svg>
