<svg width="82" height="82" viewBox="0 0 82 82" fill="none" xmlns="http://www.w3.org/2000/svg">
<path d="M0 40C0 21.1438 0 11.7157 5.85786 5.85786C11.7157 0 21.1438 0 40 0H42C60.8562 0 70.2843 0 76.1421 5.85786C82 11.7157 82 21.1438 82 40V42C82 60.8562 82 70.2843 76.1421 76.1421C70.2843 82 60.8562 82 42 82H40C21.1438 82 11.7157 82 5.85786 76.1421C0 70.2843 0 60.8562 0 42V40Z" fill="#FF6250" fill-opacity="0.2"/>
<path opacity="0.2" d="M31.435 55.8148C31.3129 55.9389 31.1673 56.0373 31.0068 56.1046C30.8462 56.1718 30.6739 56.2064 30.4999 56.2064C30.3258 56.2064 30.1535 56.1718 29.9929 56.1046C29.8324 56.0373 29.6868 55.9389 29.5647 55.8148L26.185 52.4352C26.061 52.313 25.9625 52.1675 25.8953 52.0069C25.8281 51.8464 25.7935 51.6741 25.7935 51.5C25.7935 51.3259 25.8281 51.1536 25.8953 50.9931C25.9625 50.8325 26.061 50.687 26.185 50.5648L43.6249 33.125L48.8749 38.375L31.435 55.8148Z" fill="#FF6250"/>
<path d="M55.4375 41V48.875" stroke="#FF6250" stroke-width="2.375" stroke-linecap="round" stroke-linejoin="round"/>
<path d="M51.5 44.9375H59.375" stroke="#FF6250" stroke-width="2.375" stroke-linecap="round" stroke-linejoin="round"/>
<path d="M33.7812 26.5625V33.125" stroke="#FF6250" stroke-width="2.375" stroke-linecap="round" stroke-linejoin="round"/>
<path d="M30.5 29.8438H37.0625" stroke="#FF6250" stroke-width="2.375" stroke-linecap="round" stroke-linejoin="round"/>
<path d="M47.5625 50.1875V55.4375" stroke="#FF6250" stroke-width="2.375" stroke-linecap="round" stroke-linejoin="round"/>
<path d="M44.9375 52.8125H50.1875" stroke="#FF6250" stroke-width="2.375" stroke-linecap="round" stroke-linejoin="round"/>
<path d="M50.5857 26.174L26.1888 50.5708C25.6763 51.0834 25.6763 51.9144 26.1888 52.427L29.5821 55.8203C30.0947 56.3328 30.9257 56.3328 31.4383 55.8203L55.8351 31.4234C56.3477 30.9109 56.3477 30.0798 55.8351 29.5673L52.4418 26.174C51.9293 25.6614 51.0982 25.6614 50.5857 26.174Z" stroke="#FF6250" stroke-width="2.375" stroke-linecap="round" stroke-linejoin="round"/>
<path d="M43.625 33.125L48.875 38.375" stroke="#FF6250" stroke-width="2.375" stroke-linecap="round" stroke-linejoin="round"/>
</svg>
