<svg width="82" height="82" viewBox="0 0 82 82" fill="none" xmlns="http://www.w3.org/2000/svg">
<path d="M0 40C0 21.1438 0 11.7157 5.85786 5.85786C11.7157 0 21.1438 0 40 0H42C60.8562 0 70.2843 0 76.1421 5.85786C82 11.7157 82 21.1438 82 40V42C82 60.8562 82 70.2843 76.1421 76.1421C70.2843 82 60.8562 82 42 82H40C21.1438 82 11.7157 82 5.85786 76.1421C0 70.2843 0 60.8562 0 42V40Z" fill="#009379" fill-opacity="0.2"/>
<path opacity="0.2" d="M49.0391 31.2875C49.7901 32.6551 50.185 34.1897 50.1875 35.75V36.3898C50.1901 36.9824 49.9897 37.5579 49.6195 38.0207C49.2493 38.4834 48.7318 38.8053 48.1531 38.9328C45.8055 39.4575 43.4054 39.7107 41 39.6875C38.5946 39.7107 36.1945 39.4575 33.8469 38.9328C33.2682 38.8053 32.7507 38.4834 32.3805 38.0207C32.0103 37.5579 31.8099 36.9824 31.8125 36.3898V35.8812C31.8135 34.2708 32.2317 32.6881 33.0266 31.2875C26.8742 32.5508 22.625 35.2578 22.625 38.375C22.625 42.7226 30.8445 46.25 41 46.25C51.1555 46.25 59.375 42.7226 59.375 38.375C59.375 35.2578 55.1586 32.5672 49.0391 31.2875Z" fill="#009379"/>
<path d="M47.6938 50.9586L48.3337 54.8305" stroke="#009379" stroke-width="2" stroke-linecap="round" stroke-linejoin="round"/>
<path d="M41 51.5V56.75" stroke="#009379" stroke-width="2" stroke-linecap="round" stroke-linejoin="round"/>
<path d="M34.3063 50.9586L33.6665 54.8305" stroke="#009379" stroke-width="2" stroke-linecap="round" stroke-linejoin="round"/>
<path d="M49.0391 31.2875C55.1586 32.5672 59.375 35.2578 59.375 38.375C59.375 42.7226 51.1555 46.25 41 46.25C30.8445 46.25 22.625 42.7226 22.625 38.375C22.625 35.2578 26.8742 32.5508 33.0266 31.2875" stroke="#009379" stroke-width="2" stroke-linecap="round" stroke-linejoin="round"/>
<path d="M31.8125 36.3898C31.8099 36.9824 32.0104 37.558 32.3805 38.0207C32.7507 38.4834 33.2682 38.8053 33.8469 38.9328C36.1945 39.4575 38.5946 39.7107 41 39.6875C43.4054 39.7107 45.8056 39.4575 48.1532 38.9328C48.7318 38.8053 49.2494 38.4834 49.6195 38.0207C49.9897 37.558 50.1902 36.9824 50.1875 36.3898V35.75C50.1876 34.5337 49.9462 33.3296 49.4773 32.2074C49.0085 31.0851 48.3214 30.0672 47.4561 29.2125C46.5908 28.3578 45.5643 27.6835 44.4364 27.2286C43.3084 26.7737 42.1013 26.5473 40.8852 26.5625C35.8321 26.6281 31.8125 30.8445 31.8125 35.8812V36.3898Z" stroke="#009379" stroke-width="2" stroke-linecap="round" stroke-linejoin="round"/>
</svg>
