<svg width="82" height="82" viewBox="0 0 82 82" fill="none" xmlns="http://www.w3.org/2000/svg">
<path d="M0 40C0 21.1438 0 11.7157 5.85786 5.85786C11.7157 0 21.1438 0 40 0H42C60.8562 0 70.2843 0 76.1421 5.85786C82 11.7157 82 21.1438 82 40V42C82 60.8562 82 70.2843 76.1421 76.1421C70.2843 82 60.8562 82 42 82H40C21.1438 82 11.7157 82 5.85786 76.1421C0 70.2843 0 60.8562 0 42V40Z" fill="#C21D1D" fill-opacity="0.81"/>
<path opacity="0.2" d="M36.7998 52.55L29.4498 45.2L26.2178 54.1086C26.1284 54.3424 26.1086 54.597 26.1608 54.8417C26.213 55.0865 26.335 55.3109 26.5119 55.4879C26.6889 55.6648 26.9133 55.7868 27.1581 55.839C27.4028 55.8912 27.6574 55.8714 27.8912 55.782L36.7998 52.55Z" fill="#F8D57E"/>
<path opacity="0.2" d="M52.6207 44.834L52.6209 44.8342C52.7706 44.9825 52.8802 45.1663 52.9398 45.3684C52.9994 45.5705 53.007 45.7843 52.9617 45.9901C52.9165 46.1959 52.82 46.3869 52.6812 46.5454C52.5424 46.7039 52.3658 46.8247 52.1678 46.8967L45.4787 49.3276L32.6724 36.5214L35.1034 29.8323C35.1753 29.6343 35.2962 29.4576 35.4547 29.3188C35.6132 29.18 35.8042 29.0835 36.01 29.0383C36.2157 28.9931 36.4296 29.0007 36.6317 29.0602C36.8338 29.1198 37.0175 29.2295 37.1659 29.3791L37.1661 29.3793L52.6207 44.834Z" fill="#F8D57E" stroke="#F8D57E" stroke-width="0.125"/>
<path d="M26.2178 54.1086L35.0443 29.8109C35.1199 29.603 35.2468 29.4176 35.4132 29.2718C35.5796 29.1261 35.7802 29.0248 35.9963 28.9773C36.2123 28.9298 36.4369 28.9377 36.6491 29.0003C36.8613 29.0629 37.0542 29.178 37.2099 29.3351L52.6646 44.7898C52.8217 44.9456 52.9369 45.1385 52.9995 45.3507C53.062 45.5629 53.0699 45.7874 53.0225 46.0035C52.975 46.2196 52.8737 46.4201 52.728 46.5866C52.5822 46.753 52.3968 46.8799 52.1888 46.9554L27.8912 55.782C27.6574 55.8714 27.4028 55.8911 27.1581 55.8389C26.9133 55.7867 26.6889 55.6648 26.5119 55.4878C26.335 55.3109 26.213 55.0865 26.1608 54.8417C26.1086 54.597 26.1284 54.3423 26.2178 54.1086V54.1086Z" stroke="#F8D57E" stroke-width="2" stroke-linecap="round" stroke-linejoin="round"/>
<path d="M47.5625 31.8125C47.5625 31.8125 47.5625 27.875 51.5 27.875C55.4375 27.875 55.4375 23.9375 55.4375 23.9375" stroke="#F8D57E" stroke-width="2" stroke-linecap="round" stroke-linejoin="round"/>
<path d="M36.8002 52.55L29.4502 45.2" stroke="#F8D57E" stroke-width="2" stroke-linecap="round" stroke-linejoin="round"/>
<path d="M43.625 22.625V26.5625" stroke="#F8D57E" stroke-width="2" stroke-linecap="round" stroke-linejoin="round"/>
<path d="M55.4375 38.375L58.0625 41" stroke="#F8D57E" stroke-width="2" stroke-linecap="round" stroke-linejoin="round"/>
<path d="M55.4375 33.125L59.375 31.8125" stroke="#F8D57E" stroke-width="2" stroke-linecap="round" stroke-linejoin="round"/>
<path d="M32.6001 36.5375L45.4626 49.4" stroke="#F8D57E" stroke-width="2" stroke-linecap="round" stroke-linejoin="round"/>
</svg>
